<svg width="148" height="121" viewBox="0 0 148 121" fill="none" xmlns="http://www.w3.org/2000/svg">
<path d="M49.8631 27.7547C49.5908 26.5727 48.9258 25.5181 47.9767 24.7629C47.0276 24.0077 45.8505 23.5966 44.6376 23.5967H5.64129C4.2192 23.5967 2.85536 24.1616 1.84979 25.1672C0.844219 26.1727 0.279297 27.5366 0.279297 28.9587V115.638C0.279297 117.06 0.844219 118.424 1.84979 119.429C2.85536 120.435 4.2192 121 5.64129 121H129.455C130.877 121 132.241 120.435 133.246 119.429C134.252 118.424 134.817 117.06 134.817 115.638V42.8267C134.817 41.4046 134.252 40.0408 133.246 39.0352C132.241 38.0297 130.877 37.4647 129.455 37.4647H62.0641C59.2318 37.4652 56.4831 36.5052 54.267 34.7415C52.0509 32.9778 50.4984 30.5148 49.8631 27.7547Z" fill="#1C86FF"/>
<path opacity="0.6" d="M49.8631 27.7547C49.5908 26.5727 48.9258 25.5181 47.9767 24.7629C47.0276 24.0077 45.8505 23.5966 44.6376 23.5967H5.64129C4.2192 23.5967 2.85536 24.1616 1.84979 25.1672C0.844219 26.1727 0.279297 27.5366 0.279297 28.9587V115.638C0.279297 117.06 0.844219 118.424 1.84979 119.429C2.85536 120.435 4.2192 121 5.64129 121H129.455C130.877 121 132.241 120.435 133.246 119.429C134.252 118.424 134.817 117.06 134.817 115.638V42.8267C134.817 41.4046 134.252 40.0408 133.246 39.0352C132.241 38.0297 130.877 37.4647 129.455 37.4647H62.0641C59.2318 37.4652 56.4831 36.5052 54.267 34.7415C52.0509 32.9778 50.4984 30.5148 49.8631 27.7547Z" fill="black"/>
<path d="M57.4847 0.759766L17.2698 13.185C16.5599 13.4031 15.8999 13.759 15.3277 14.2324C14.7555 14.7058 14.2822 15.2873 13.9349 15.9438C13.5877 16.6003 13.3733 17.3188 13.304 18.0582C13.2346 18.7976 13.3118 19.5435 13.531 20.2531L36.4901 94.58C36.7092 95.2897 37.066 95.9492 37.5401 96.521C38.0142 97.0927 38.5963 97.5655 39.2531 97.9122C39.9099 98.2589 40.6286 98.4729 41.3681 98.5418C42.1076 98.6108 42.8535 98.5333 43.5631 98.3139L95.0333 82.4132C95.7428 82.1946 96.4022 81.8383 96.9739 81.3647C97.5456 80.8911 98.0184 80.3094 98.3652 79.653C98.7119 78.9966 98.9259 78.2782 98.9949 77.5391C99.0639 76.7999 98.9865 76.0544 98.7672 75.3451L79.2691 12.2734L57.4847 0.759766Z" fill="#1C86FF"/>
<path opacity="0.8" d="M57.4847 0.759766L17.2698 13.185C16.5599 13.4031 15.8999 13.759 15.3277 14.2324C14.7555 14.7058 14.2822 15.2873 13.9349 15.9438C13.5877 16.6003 13.3733 17.3188 13.304 18.0582C13.2346 18.7976 13.3118 19.5435 13.531 20.2531L36.4901 94.58C36.7092 95.2897 37.066 95.9492 37.5401 96.521C38.0142 97.0927 38.5963 97.5655 39.2531 97.9122C39.9099 98.2589 40.6286 98.4729 41.3681 98.5418C42.1076 98.6108 42.8535 98.5333 43.5631 98.3139L95.0333 82.4132C95.7428 82.1946 96.4022 81.8383 96.9739 81.3647C97.5456 80.8911 98.0184 80.3094 98.3652 79.653C98.7119 78.9966 98.9259 78.2782 98.9949 77.5391C99.0639 76.7999 98.9865 76.0544 98.7672 75.3451L79.2691 12.2734L57.4847 0.759766Z" fill="white"/>
<g opacity="0.28">
<path d="M79.1234 79.1671L45.6646 89.5011C45.0389 89.6933 44.3625 89.6299 43.7834 89.3248C43.2043 89.0198 42.7695 88.4978 42.5742 87.873C42.3837 87.2473 42.4485 86.5716 42.7544 85.9935C43.0604 85.4154 43.5826 84.9818 44.2071 84.7875L77.666 74.4486C78.2923 74.2566 78.9692 74.3206 79.5485 74.6267C80.1277 74.9328 80.5621 75.4559 80.7564 76.0815C80.9469 76.7073 80.8821 77.3829 80.5762 77.961C80.2702 78.5391 79.748 78.9727 79.1234 79.1671Z" fill="#1C86FF"/>
</g>
<g opacity="0.28">
<path d="M43.1133 18.5174L25.4187 23.9817C24.7929 24.1726 24.1172 24.1086 23.5384 23.8037C22.9596 23.4988 22.5247 22.9776 22.3282 22.3537C22.1376 21.7273 22.2022 21.051 22.5081 20.4721C22.814 19.8932 23.3363 19.4586 23.9612 19.2632L41.6558 13.7988C42.2815 13.6053 42.9584 13.6681 43.5379 13.9733C44.1174 14.2786 44.552 14.8014 44.7462 15.4269C44.9369 16.0533 44.8722 16.7296 44.5663 17.3085C44.2604 17.8874 43.7381 18.3219 43.1133 18.5174Z" fill="#1C86FF"/>
</g>
<g opacity="0.28">
<path d="M57.5512 24.3131L28.304 33.3456C27.6795 33.5331 27.0064 33.4668 26.4305 33.1611C25.8546 32.8554 25.4226 32.3349 25.2281 31.7126C25.0361 31.0875 25.0996 30.4118 25.4048 29.8335C25.7099 29.2551 26.2318 28.8213 26.8562 28.627L56.1035 19.5945C56.7292 19.4023 57.4055 19.4657 57.9847 19.7708C58.5638 20.0759 58.9986 20.5979 59.1939 21.2226C59.3828 21.8502 59.3162 22.5271 59.0085 23.1059C58.7009 23.6847 58.1771 24.1185 57.5512 24.3131Z" fill="#1C86FF"/>
</g>
<g opacity="0.28">
<path d="M73.8808 29.5236L31.1994 42.6849C30.5743 42.8769 29.8986 42.8134 29.3203 42.5082C28.7419 42.2031 28.3081 41.6811 28.1138 41.0568C27.9229 40.431 27.9869 39.7553 28.2918 39.1765C28.5968 38.5977 29.1179 38.1628 29.7419 37.9663L72.4234 24.805C73.0484 24.6143 73.7236 24.6785 74.3016 24.9834C74.8795 25.2884 75.3135 25.8095 75.5089 26.4331C75.7011 27.0589 75.6378 27.7352 75.3327 28.3144C75.0276 28.8935 74.5056 29.3282 73.8808 29.5236Z" fill="#1C86FF"/>
</g>
<g opacity="0.28">
<path d="M76.7724 38.8835L51.9609 46.5511C51.3352 46.7416 50.6596 46.6768 50.0814 46.3709C49.5033 46.0649 49.0697 45.5427 48.8754 44.9181C48.6847 44.2931 48.7488 43.618 49.0538 43.04C49.3587 42.462 49.8798 42.028 50.5035 41.8326L75.3149 34.1649C75.9412 33.9756 76.617 34.0409 77.1955 34.3466C77.7741 34.6523 78.2088 35.1738 78.4053 35.7979C78.5958 36.4236 78.531 37.0993 78.2251 37.6774C77.9191 38.2555 77.3969 38.6891 76.7724 38.8835Z" fill="#1C86FF"/>
</g>
<g opacity="0.28">
<path d="M40.5837 50.0657L34.0957 52.0692C33.4699 52.2614 32.7936 52.198 32.2144 51.8929C31.6353 51.5878 31.2006 51.0658 31.0052 50.4411C30.8132 49.8147 30.8773 49.1378 31.1833 48.5586C31.4894 47.9793 32.0125 47.545 32.6382 47.3506L39.1262 45.3472C39.7519 45.1563 40.4277 45.2203 41.0065 45.5252C41.5852 45.8302 42.0202 46.3513 42.2166 46.9753C42.406 47.6017 42.3407 48.2774 42.035 48.856C41.7293 49.4345 41.2078 49.8692 40.5837 50.0657Z" fill="#1C86FF"/>
</g>
<g opacity="0.28">
<path d="M79.6671 48.2472L36.9856 61.4329C36.3599 61.6234 35.6842 61.5586 35.1061 61.2526C34.528 60.9467 34.0944 60.4244 33.9 59.7999C33.708 59.1748 33.7715 58.4991 34.0766 57.9208C34.3818 57.3424 34.9037 56.9086 35.5281 56.7143L78.2096 43.5287C78.8346 43.338 79.5098 43.4021 80.0878 43.7071C80.6658 44.0121 81.0998 44.5332 81.2952 45.1568C81.4873 45.7825 81.424 46.4589 81.1189 47.038C80.8138 47.6171 80.2918 48.0519 79.6671 48.2472Z" fill="#1C86FF"/>
</g>
<g opacity="0.28">
<path d="M66.0895 62.6952L39.8791 70.7918C39.254 70.9825 38.5789 70.9184 38.0009 70.6134C37.4229 70.3084 36.9889 69.7874 36.7935 69.1637C36.6026 68.538 36.6666 67.8622 36.9715 67.2834C37.2764 66.7047 37.7976 66.2697 38.4216 66.0733L64.632 57.9767C65.2584 57.786 65.9347 57.8507 66.5136 58.1566C67.0925 58.4624 67.527 58.9847 67.7224 59.6096C67.9143 60.2353 67.8501 60.9116 67.544 61.4901C67.2378 62.0685 66.7147 62.5019 66.0895 62.6952Z" fill="#1C86FF"/>
</g>
<g opacity="0.28">
<path d="M82.558 57.6107L75.563 59.7702C74.9367 59.9608 74.2604 59.8961 73.6815 59.5903C73.1026 59.2844 72.668 58.7621 72.4726 58.1372C72.2821 57.5115 72.3469 56.8358 72.6528 56.2577C72.9588 55.6796 73.481 55.246 74.1056 55.0516L81.1005 52.8922C81.7256 52.7001 82.4013 52.7637 82.9797 53.0688C83.558 53.374 83.9918 53.8959 84.1861 54.5203C84.3783 55.146 84.3149 55.8224 84.0098 56.4015C83.7047 56.9806 83.1828 57.4154 82.558 57.6107Z" fill="#1C86FF"/>
</g>
<g opacity="0.28">
<path d="M85.4508 66.9801L42.7791 80.1414C42.1527 80.3334 41.4758 80.2693 40.8966 79.9632C40.3173 79.6572 39.883 79.134 39.6886 78.5084C39.4968 77.8827 39.561 77.2064 39.8671 76.628C40.1733 76.0495 40.6963 75.6161 41.3216 75.4228L83.9982 62.2372C84.6246 62.0479 85.3003 62.1131 85.8789 62.4188C86.4574 62.7245 86.8921 63.246 87.0887 63.8702C87.1866 64.1819 87.2218 64.5099 87.1924 64.8353C87.163 65.1607 87.0694 65.477 86.9172 65.7661C86.765 66.0552 86.557 66.3113 86.3053 66.5197C86.0537 66.728 85.7632 66.8845 85.4508 66.9801Z" fill="#1C86FF"/>
</g>
<path opacity="0.22" d="M57.4863 0.759766L60.9619 12.0151C61.4056 13.4476 62.3996 14.6454 63.7258 15.3455C65.0519 16.0456 66.6018 16.1907 68.0348 15.749L79.2853 12.2734L57.4863 0.759766Z" fill="#1C86FF"/>
<path d="M103.744 6.16016L61.735 8.75342C60.9928 8.79752 60.2667 8.98756 59.598 9.31265C58.9294 9.63773 58.3315 10.0915 57.8384 10.6479C57.3453 11.2044 56.9669 11.8526 56.7246 12.5555C56.4824 13.2584 56.3811 14.0022 56.4266 14.7442L61.2183 92.3859C61.263 93.1285 61.4538 93.855 61.7798 94.5237C62.1057 95.1925 62.5605 95.7903 63.1179 96.283C63.6753 96.7757 64.3245 97.1535 65.0282 97.3948C65.732 97.6362 66.4764 97.7363 67.2189 97.6894L120.985 94.3698C121.726 94.3251 122.452 94.1346 123.119 93.8091C123.787 93.4836 124.383 93.0296 124.875 92.4731C125.367 91.9166 125.744 91.2685 125.985 90.5659C126.226 89.8634 126.326 89.1202 126.279 88.379L122.233 22.4899L103.744 6.16016Z" fill="#1C86FF"/>
<path opacity="0.8" d="M103.744 6.16016L61.735 8.75342C60.9928 8.79752 60.2667 8.98756 59.598 9.31265C58.9294 9.63773 58.3315 10.0915 57.8384 10.6479C57.3453 11.2044 56.9669 11.8526 56.7246 12.5555C56.4824 13.2584 56.3811 14.0022 56.4266 14.7442L61.2183 92.3859C61.263 93.1285 61.4538 93.855 61.7798 94.5237C62.1057 95.1925 62.5605 95.7903 63.1179 96.283C63.6753 96.7757 64.3245 97.1535 65.0282 97.3948C65.732 97.6362 66.4764 97.7363 67.2189 97.6894L120.985 94.3698C121.726 94.3251 122.452 94.1346 123.119 93.8091C123.787 93.4836 124.383 93.0296 124.875 92.4731C125.367 91.9166 125.744 91.2685 125.985 90.5659C126.226 89.8634 126.326 89.1202 126.279 88.379L122.233 22.4899L103.744 6.16016Z" fill="white"/>
<g opacity="0.22">
<path d="M106.285 87.453L71.3297 89.6124C70.6767 89.6498 70.0354 89.4273 69.5459 88.9935C69.0564 88.5597 68.7584 87.9498 68.717 87.297C68.6795 86.6443 68.9012 86.0032 69.3339 85.513C69.7665 85.0229 70.3752 84.7233 71.0275 84.6794L105.983 82.5249C106.636 82.4861 107.278 82.7074 107.768 83.1403C108.259 83.5732 108.558 84.1826 108.6 84.8354C108.639 85.4892 108.417 86.1317 107.983 86.6223C107.549 87.1129 106.939 87.4116 106.285 87.453Z" fill="#1C86FF"/>
</g>
<g opacity="0.22">
<path d="M85.5971 20.0282L67.108 21.1591C66.4553 21.1965 65.8142 20.9748 65.324 20.5422C64.8339 20.1095 64.5343 19.5009 64.4904 18.8485C64.453 18.195 64.6754 17.5532 65.109 17.0629C65.5427 16.5726 66.1526 16.2736 66.8058 16.2309L85.2949 15.0903C85.9475 15.0516 86.5888 15.273 87.0784 15.706C87.5681 16.139 87.8663 16.7484 87.9077 17.4008C87.9491 18.0555 87.7291 18.6998 87.2959 19.1924C86.8627 19.685 86.2517 19.9856 85.5971 20.0282Z" fill="#1C86FF"/>
</g>
<g opacity="0.22">
<path d="M98.2586 29.0656L67.7098 30.9472C67.0565 30.9872 66.414 30.7664 65.9232 30.3333C65.4325 29.9001 65.1336 29.2899 65.0922 28.6366C65.0535 27.9828 65.2754 27.3403 65.7094 26.8497C66.1433 26.3591 66.754 26.0604 67.4076 26.019L97.9515 24.1374C98.6048 24.0974 99.2474 24.3182 99.7381 24.7514C100.229 25.1845 100.528 25.7947 100.569 26.448C100.608 27.101 100.387 27.7428 99.9537 28.2333C99.5208 28.7237 98.9114 29.023 98.2586 29.0656Z" fill="#1C86FF"/>
</g>
<g opacity="0.22">
<path d="M112.9 37.982L68.3173 40.7312C67.6621 40.7713 67.0178 40.5502 66.5254 40.1162C66.0329 39.6822 65.7325 39.0708 65.6899 38.4158C65.6512 37.7633 65.8726 37.122 66.3056 36.6323C66.7386 36.1427 67.348 35.8445 68.0004 35.8031L112.588 33.049C113.241 33.0116 113.882 33.2341 114.372 33.6679C114.861 34.1017 115.159 34.7116 115.201 35.3644C115.239 36.0158 115.019 36.6563 114.589 37.1465C114.158 37.6366 113.551 37.9369 112.9 37.982Z" fill="#1C86FF"/>
</g>
<g opacity="0.22">
<path d="M113.503 47.7599L87.5851 49.3588C86.9321 49.3975 86.2903 49.1763 85.7998 48.7434C85.3094 48.3104 85.0102 47.701 84.9675 47.0482C84.9275 46.3949 85.1483 45.7524 85.5814 45.2616C86.0146 44.7709 86.6248 44.472 87.2781 44.4306L113.196 42.8318C113.849 42.7917 114.492 43.0125 114.983 43.4457C115.473 43.8789 115.772 44.489 115.814 45.1423C115.852 45.7954 115.631 46.4372 115.198 46.9276C114.765 47.4181 114.156 47.7173 113.503 47.7599Z" fill="#1C86FF"/>
</g>
<g opacity="0.22">
<path d="M75.6964 50.0895L68.9159 50.5087C68.2634 50.5474 67.6221 50.326 67.1324 49.8929C66.6428 49.4599 66.3446 48.8505 66.3032 48.1981C66.2644 47.5451 66.4857 46.9033 66.9186 46.4128C67.3515 45.9224 67.9609 45.6231 68.6137 45.5805L75.3942 45.1613C76.0477 45.1239 76.6895 45.3463 77.1798 45.7799C77.6701 46.2136 77.9692 46.8235 78.0118 47.4767C78.0492 48.1297 77.8267 48.771 77.3929 49.2605C76.9591 49.75 76.3492 50.048 75.6964 50.0895Z" fill="#1C86FF"/>
</g>
<g opacity="0.22">
<path d="M114.106 57.538L69.5182 60.2872C68.8651 60.3259 68.2233 60.1047 67.7328 59.6718C67.2424 59.2389 66.9432 58.6295 66.9005 57.9767C66.8631 57.3232 67.0855 56.6813 67.5192 56.191C67.9529 55.7007 68.5628 55.4017 69.2159 55.359L113.798 52.6098C114.452 52.5711 115.095 52.793 115.585 53.227C116.076 53.6609 116.375 54.2715 116.416 54.9252C116.455 55.5777 116.233 56.219 115.8 56.7087C115.367 57.1984 114.758 57.4966 114.106 57.538Z" fill="#1C86FF"/>
</g>
<g opacity="0.22">
<path d="M97.5039 68.3795L70.1236 70.0709C69.4701 70.1083 68.8283 69.886 68.338 69.4523C67.8477 69.0186 67.5487 68.4087 67.506 67.7555C67.4686 67.1025 67.6912 66.4612 68.125 65.9717C68.5588 65.4822 69.1686 65.1842 69.8214 65.1428L97.2017 63.4513C97.8547 63.4139 98.496 63.6365 98.9855 64.0703C99.475 64.5041 99.773 65.114 99.8144 65.7667C99.8545 66.4196 99.6335 67.0616 99.2002 67.5515C98.7669 68.0415 98.1568 68.3393 97.5039 68.3795Z" fill="#1C86FF"/>
</g>
<g opacity="0.22">
<path d="M114.708 67.3215L107.397 67.7699C106.744 67.8086 106.103 67.5872 105.613 67.1542C105.123 66.7212 104.825 66.1118 104.784 65.4594C104.744 64.806 104.965 64.1635 105.398 63.6727C105.831 63.182 106.441 62.8831 107.094 62.8418L114.406 62.3933C115.06 62.3533 115.702 62.5741 116.193 63.0072C116.684 63.4404 116.983 64.0506 117.024 64.7038C117.061 65.3573 116.839 65.9992 116.405 66.4895C115.972 66.9798 115.362 67.2788 114.708 67.3215Z" fill="#1C86FF"/>
</g>
<g opacity="0.22">
<path d="M115.312 77.0995L70.7294 79.8487C70.0764 79.8875 69.4345 79.6662 68.9441 79.2333C68.4536 78.8004 68.1544 78.191 68.1118 77.5382C68.073 76.8852 68.2943 76.2433 68.7272 75.7529C69.1601 75.2624 69.7695 74.9632 70.4223 74.9206L115.01 72.1713C115.662 72.1326 116.304 72.354 116.793 72.7871C117.283 73.2201 117.581 73.8295 117.622 74.4819C117.663 75.1352 117.442 75.7778 117.009 76.2685C116.575 76.7593 115.965 77.0581 115.312 77.0995Z" fill="#1C86FF"/>
</g>
<path opacity="0.22" d="M103.744 6.16016L104.47 17.9176C104.516 18.6589 104.707 19.384 105.032 20.0515C105.358 20.719 105.812 21.3158 106.368 21.8079C106.925 22.2999 107.572 22.6775 108.275 22.9192C108.977 23.1608 109.72 23.2617 110.461 23.2162L122.233 22.4899L103.744 6.16016Z" fill="#1C86FF"/>
<path opacity="0.5" d="M65.6264 35.4906C65.6191 34.9271 65.4988 34.3709 65.2729 33.8547C65.0469 33.3385 64.7198 32.8729 64.3108 32.4852C63.9018 32.0976 63.4193 31.7959 62.8918 31.5979C62.3642 31.4 61.8023 31.3097 61.2393 31.3326H22.1943C19.2354 31.3326 16.3448 33.7357 15.7891 36.6946L0.380689 115.638C-0.194507 118.597 1.73581 121 4.69466 121H128.508C131.467 121 134.333 118.601 134.913 115.638L147.621 50.5626C148.196 47.5989 146.266 45.2006 143.307 45.2006H75.9361C70.0866 45.2006 65.8263 41.1743 65.6264 35.4906Z" fill="#1C86FF"/>
</svg>
