<svg
  width="150"
  height="112"
  viewBox="0 0 150 112"
  fill="none"
  xmlns="http://www.w3.org/2000/svg"
>
  <g opacity="0.4">
    <rect
      opacity="0.07"
      y="-1.18652"
      width="11.0508"
      height="11.0508"
      rx="2.76271"
      fill="white"
    />
    <rect
      opacity="0.2"
      x="13.8125"
      y="-1.18652"
      width="11.0508"
      height="11.0508"
      rx="2.76271"
      fill="white"
    />
    <rect
      opacity="0.07"
      x="27.6289"
      y="-1.18652"
      width="11.0508"
      height="11.0508"
      rx="2.76271"
      fill="white"
    />
    <rect
      opacity="0.07"
      x="41.4414"
      y="-1.18652"
      width="11.0508"
      height="11.0508"
      rx="2.76271"
      fill="white"
    />
    <rect
      opacity="0.2"
      x="55.2539"
      y="-1.18652"
      width="11.0508"
      height="11.0508"
      rx="2.76271"
      fill="white"
    />
    <rect
      opacity="0.2"
      x="69.0664"
      y="-1.18652"
      width="11.0508"
      height="11.0508"
      rx="2.76271"
      fill="white"
    />
    <rect
      opacity="0.07"
      x="82.8828"
      y="-1.18652"
      width="11.0508"
      height="11.0508"
      rx="2.76271"
      fill="white"
    />
    <rect
      opacity="0.07"
      x="96.6953"
      y="-1.18652"
      width="11.0508"
      height="11.0508"
      rx="2.76271"
      fill="white"
    />
    <rect
      opacity="0.2"
      x="110.508"
      y="-1.18652"
      width="11.0508"
      height="11.0508"
      rx="2.76271"
      fill="white"
    />
    <rect
      opacity="0.07"
      x="124.32"
      y="-1.18652"
      width="11.0508"
      height="11.0508"
      rx="2.76271"
      fill="white"
    />
    <rect
      opacity="0.07"
      x="138.137"
      y="-1.18652"
      width="11.0508"
      height="11.0508"
      rx="2.76271"
      fill="white"
    />
    <rect
      opacity="0.07"
      y="12.627"
      width="11.0508"
      height="11.0508"
      rx="2.76271"
      fill="white"
    />
    <rect
      opacity="0.07"
      x="13.8125"
      y="12.627"
      width="11.0508"
      height="11.0508"
      rx="2.76271"
      fill="white"
    />
    <rect
      opacity="0.07"
      x="27.6289"
      y="12.627"
      width="11.0508"
      height="11.0508"
      rx="2.76271"
      fill="white"
    />
    <rect
      opacity="0.07"
      x="41.4414"
      y="12.627"
      width="11.0508"
      height="11.0508"
      rx="2.76271"
      fill="white"
    />
    <rect
      opacity="0.07"
      x="55.2539"
      y="12.627"
      width="11.0508"
      height="11.0508"
      rx="2.76271"
      fill="white"
    />
    <rect
      opacity="0.07"
      x="69.0664"
      y="12.627"
      width="11.0508"
      height="11.0508"
      rx="2.76271"
      fill="white"
    />
    <rect
      opacity="0.07"
      x="82.8828"
      y="12.627"
      width="11.0508"
      height="11.0508"
      rx="2.76271"
      fill="white"
    />
    <rect
      opacity="0.07"
      x="96.6953"
      y="12.627"
      width="11.0508"
      height="11.0508"
      rx="2.76271"
      fill="white"
    />
    <rect
      opacity="0.07"
      x="110.508"
      y="12.627"
      width="11.0508"
      height="11.0508"
      rx="2.76271"
      fill="white"
    />
    <rect
      opacity="0.07"
      x="124.32"
      y="12.627"
      width="11.0508"
      height="11.0508"
      rx="2.76271"
      fill="white"
    />
    <rect
      opacity="0.07"
      x="138.137"
      y="12.627"
      width="11.0508"
      height="11.0508"
      rx="2.76271"
      fill="white"
    />
    <rect
      opacity="0.7"
      y="26.4409"
      width="11.0508"
      height="11.0508"
      rx="2.76271"
      fill="white"
    />
    <rect
      opacity="0.07"
      x="13.8125"
      y="26.4409"
      width="11.0508"
      height="11.0508"
      rx="2.76271"
      fill="white"
    />
    <rect
      opacity="0.2"
      x="27.6289"
      y="26.4409"
      width="11.0508"
      height="11.0508"
      rx="2.76271"
      fill="white"
    />
    <rect
      opacity="0.2"
      x="41.4414"
      y="26.4409"
      width="11.0508"
      height="11.0508"
      rx="2.76271"
      fill="white"
    />
    <rect
      opacity="0.5"
      x="55.2539"
      y="26.4409"
      width="11.0508"
      height="11.0508"
      rx="2.76271"
      fill="white"
    />
    <rect
      opacity="0.07"
      x="69.0664"
      y="26.4409"
      width="11.0508"
      height="11.0508"
      rx="2.76271"
      fill="white"
    />
    <rect
      opacity="0.5"
      x="82.8828"
      y="26.4409"
      width="11.0508"
      height="11.0508"
      rx="2.76271"
      fill="white"
    />
    <rect
      opacity="0.07"
      x="96.6953"
      y="26.4409"
      width="11.0508"
      height="11.0508"
      rx="2.76271"
      fill="white"
    />
    <rect
      opacity="0.07"
      x="110.508"
      y="26.4409"
      width="11.0508"
      height="11.0508"
      rx="2.76271"
      fill="white"
    />
    <rect
      opacity="0.07"
      x="124.32"
      y="26.4409"
      width="11.0508"
      height="11.0508"
      rx="2.76271"
      fill="white"
    />
    <rect
      opacity="0.5"
      x="138.137"
      y="26.4409"
      width="11.0508"
      height="11.0508"
      rx="2.76271"
      fill="white"
    />
    <rect
      opacity="0.5"
      y="40.2544"
      width="11.0508"
      height="11.0508"
      rx="2.76271"
      fill="white"
    />
    <rect
      opacity="0.5"
      x="13.8125"
      y="40.2544"
      width="11.0508"
      height="11.0508"
      rx="2.76271"
      fill="white"
    />
    <rect
      opacity="0.07"
      x="27.6289"
      y="40.2544"
      width="11.0508"
      height="11.0508"
      rx="2.76271"
      fill="white"
    />
    <rect
      opacity="0.1"
      x="41.4414"
      y="40.2544"
      width="11.0508"
      height="11.0508"
      rx="2.76271"
      fill="white"
    />
    <rect
      opacity="0.5"
      x="55.2539"
      y="40.2544"
      width="11.0508"
      height="11.0508"
      rx="2.76271"
      fill="white"
    />
    <rect
      opacity="0.07"
      x="69.0664"
      y="40.2544"
      width="11.0508"
      height="11.0508"
      rx="2.76271"
      fill="white"
    />
    <rect
      opacity="0.07"
      x="82.8828"
      y="40.2544"
      width="11.0508"
      height="11.0508"
      rx="2.76271"
      fill="white"
    />
    <rect
      opacity="0.5"
      x="96.6953"
      y="40.2544"
      width="11.0508"
      height="11.0508"
      rx="2.76271"
      fill="white"
    />
    <rect
      opacity="0.07"
      x="110.508"
      y="40.2544"
      width="11.0508"
      height="11.0508"
      rx="2.76271"
      fill="white"
    />
    <rect
      opacity="0.5"
      x="124.32"
      y="40.2544"
      width="11.0508"
      height="11.0508"
      rx="2.76271"
      fill="white"
    />
    <rect
      opacity="0.07"
      x="138.137"
      y="40.2544"
      width="11.0508"
      height="11.0508"
      rx="2.76271"
      fill="white"
    />
    <rect
      opacity="0.5"
      y="54.0679"
      width="11.0508"
      height="11.0508"
      rx="2.76271"
      fill="white"
    />
    <rect
      opacity="0.07"
      x="13.8125"
      y="54.0679"
      width="11.0508"
      height="11.0508"
      rx="2.76271"
      fill="white"
    />
    <rect
      opacity="0.5"
      x="27.6289"
      y="54.0679"
      width="11.0508"
      height="11.0508"
      rx="2.76271"
      fill="white"
    />
    <rect
      opacity="0.07"
      x="41.4414"
      y="54.0679"
      width="11.0508"
      height="11.0508"
      rx="2.76271"
      fill="white"
    />
    <rect
      opacity="0.5"
      x="55.2539"
      y="54.0679"
      width="11.0508"
      height="11.0508"
      rx="2.76271"
      fill="white"
    />
    <rect
      opacity="0.07"
      x="69.0664"
      y="54.0679"
      width="11.0508"
      height="11.0508"
      rx="2.76271"
      fill="white"
    />
    <rect
      opacity="0.07"
      x="82.8828"
      y="54.0679"
      width="11.0508"
      height="11.0508"
      rx="2.76271"
      fill="white"
    />
    <rect
      opacity="0.07"
      x="96.6953"
      y="54.0679"
      width="11.0508"
      height="11.0508"
      rx="2.76271"
      fill="white"
    />
    <rect
      opacity="0.7"
      x="110.508"
      y="54.0679"
      width="11.0508"
      height="11.0508"
      rx="2.76271"
      fill="white"
    />
    <rect
      opacity="0.07"
      x="124.32"
      y="54.0679"
      width="11.0508"
      height="11.0508"
      rx="2.76271"
      fill="white"
    />
    <rect
      opacity="0.07"
      x="138.137"
      y="54.0679"
      width="11.0508"
      height="11.0508"
      rx="2.76271"
      fill="white"
    />
    <rect
      opacity="0.5"
      y="67.8813"
      width="11.0508"
      height="11.0508"
      rx="2.76271"
      fill="white"
    />
    <rect
      opacity="0.07"
      x="13.8125"
      y="67.8813"
      width="11.0508"
      height="11.0508"
      rx="2.76271"
      fill="white"
    />
    <rect
      opacity="0.1"
      x="27.6289"
      y="67.8813"
      width="11.0508"
      height="11.0508"
      rx="2.76271"
      fill="white"
    />
    <rect
      opacity="0.5"
      x="41.4414"
      y="67.8813"
      width="11.0508"
      height="11.0508"
      rx="2.76271"
      fill="white"
    />
    <rect
      opacity="0.5"
      x="55.2539"
      y="67.8813"
      width="11.0508"
      height="11.0508"
      rx="2.76271"
      fill="white"
    />
    <rect
      opacity="0.07"
      x="69.0664"
      y="67.8813"
      width="11.0508"
      height="11.0508"
      rx="2.76271"
      fill="white"
    />
    <rect
      opacity="0.07"
      x="82.8828"
      y="67.8813"
      width="11.0508"
      height="11.0508"
      rx="2.76271"
      fill="white"
    />
    <rect
      opacity="0.5"
      x="96.6953"
      y="67.8813"
      width="11.0508"
      height="11.0508"
      rx="2.76271"
      fill="white"
    />
    <rect
      opacity="0.07"
      x="110.508"
      y="67.8813"
      width="11.0508"
      height="11.0508"
      rx="2.76271"
      fill="white"
    />
    <rect
      opacity="0.5"
      x="124.32"
      y="67.8813"
      width="11.0508"
      height="11.0508"
      rx="2.76271"
      fill="white"
    />
    <rect
      opacity="0.07"
      x="138.137"
      y="67.8813"
      width="11.0508"
      height="11.0508"
      rx="2.76271"
      fill="white"
    />
    <rect
      opacity="0.5"
      y="81.6948"
      width="11.0508"
      height="11.0508"
      rx="2.76271"
      fill="white"
    />
    <rect
      opacity="0.2"
      x="13.8125"
      y="81.6948"
      width="11.0508"
      height="11.0508"
      rx="2.76271"
      fill="white"
    />
    <rect
      opacity="0.2"
      x="27.6289"
      y="81.6948"
      width="11.0508"
      height="11.0508"
      rx="2.76271"
      fill="white"
    />
    <rect
      opacity="0.1"
      x="41.4414"
      y="81.6948"
      width="11.0508"
      height="11.0508"
      rx="2.76271"
      fill="white"
    />
    <rect
      opacity="0.7"
      x="55.2539"
      y="81.6948"
      width="11.0508"
      height="11.0508"
      rx="2.76271"
      fill="white"
    />
    <rect
      opacity="0.07"
      x="69.0664"
      y="81.6948"
      width="11.0508"
      height="11.0508"
      rx="2.76271"
      fill="white"
    />
    <rect
      opacity="0.5"
      x="82.8828"
      y="81.6948"
      width="11.0508"
      height="11.0508"
      rx="2.76271"
      fill="white"
    />
    <rect
      opacity="0.07"
      x="96.6953"
      y="81.6948"
      width="11.0508"
      height="11.0508"
      rx="2.76271"
      fill="white"
    />
    <rect
      opacity="0.07"
      x="110.508"
      y="81.6948"
      width="11.0508"
      height="11.0508"
      rx="2.76271"
      fill="white"
    />
    <rect
      opacity="0.07"
      x="124.32"
      y="81.6948"
      width="11.0508"
      height="11.0508"
      rx="2.76271"
      fill="white"
    />
    <rect
      opacity="0.5"
      x="138.137"
      y="81.6948"
      width="11.0508"
      height="11.0508"
      rx="2.76271"
      fill="white"
    />
    <rect
      opacity="0.07"
      y="95.5083"
      width="11.0508"
      height="11.0508"
      rx="2.76271"
      fill="white"
    />
    <rect
      opacity="0.07"
      x="13.8125"
      y="95.5083"
      width="11.0508"
      height="11.0508"
      rx="2.76271"
      fill="white"
    />
    <rect
      opacity="0.07"
      x="27.6289"
      y="95.5083"
      width="11.0508"
      height="11.0508"
      rx="2.76271"
      fill="white"
    />
    <rect
      opacity="0.07"
      x="41.4414"
      y="95.5083"
      width="11.0508"
      height="11.0508"
      rx="2.76271"
      fill="white"
    />
    <rect
      opacity="0.07"
      x="55.2539"
      y="95.5083"
      width="11.0508"
      height="11.0508"
      rx="2.76271"
      fill="white"
    />
    <rect
      opacity="0.07"
      x="69.0664"
      y="95.5083"
      width="11.0508"
      height="11.0508"
      rx="2.76271"
      fill="white"
    />
    <rect
      opacity="0.07"
      x="82.8828"
      y="95.5083"
      width="11.0508"
      height="11.0508"
      rx="2.76271"
      fill="white"
    />
    <rect
      opacity="0.07"
      x="96.6953"
      y="95.5083"
      width="11.0508"
      height="11.0508"
      rx="2.76271"
      fill="white"
    />
    <rect
      opacity="0.2"
      x="110.508"
      y="95.5083"
      width="11.0508"
      height="11.0508"
      rx="2.76271"
      fill="white"
    />
    <rect
      opacity="0.07"
      x="124.32"
      y="95.5083"
      width="11.0508"
      height="11.0508"
      rx="2.76271"
      fill="white"
    />
    <rect
      opacity="0.07"
      x="138.137"
      y="95.5083"
      width="11.0508"
      height="11.0508"
      rx="2.76271"
      fill="white"
    />
    <rect
      opacity="0.07"
      y="109.322"
      width="11.0508"
      height="11.0508"
      rx="2.76271"
      fill="white"
    />
    <rect
      opacity="0.07"
      x="13.8125"
      y="109.322"
      width="11.0508"
      height="11.0508"
      rx="2.76271"
      fill="white"
    />
    <rect
      opacity="0.2"
      x="27.6289"
      y="109.322"
      width="11.0508"
      height="11.0508"
      rx="2.76271"
      fill="white"
    />
    <rect
      opacity="0.07"
      x="41.4414"
      y="109.322"
      width="11.0508"
      height="11.0508"
      rx="2.76271"
      fill="white"
    />
    <rect
      opacity="0.07"
      x="55.2539"
      y="109.322"
      width="11.0508"
      height="11.0508"
      rx="2.76271"
      fill="white"
    />
    <rect
      opacity="0.07"
      x="69.0664"
      y="109.322"
      width="11.0508"
      height="11.0508"
      rx="2.76271"
      fill="white"
    />
    <rect
      opacity="0.07"
      x="82.8828"
      y="109.322"
      width="11.0508"
      height="11.0508"
      rx="2.76271"
      fill="white"
    />
    <rect
      opacity="0.07"
      x="96.6953"
      y="109.322"
      width="11.0508"
      height="11.0508"
      rx="2.76271"
      fill="white"
    />
    <rect
      opacity="0.07"
      x="110.508"
      y="109.322"
      width="11.0508"
      height="11.0508"
      rx="2.76271"
      fill="white"
    />
    <rect
      opacity="0.07"
      x="124.32"
      y="109.322"
      width="11.0508"
      height="11.0508"
      rx="2.76271"
      fill="white"
    />
    <rect
      opacity="0.07"
      x="138.137"
      y="109.322"
      width="11.0508"
      height="11.0508"
      rx="2.76271"
      fill="white"
    />
  </g>
</svg>
