<svg width="639" height="646" viewBox="0 0 639 646" fill="none" xmlns="http://www.w3.org/2000/svg">
<path fill-rule="evenodd" clip-rule="evenodd" d="M-100.368 107.186C-102.965 108.893 -104.426 111.875 -104.169 114.972C-104.051 116.372 -103.579 117.738 -102.803 118.918L-99.1301 124.494C-99.9229 125.962 -100.296 127.652 -100.156 129.358C-100.022 130.924 -99.4672 132.427 -98.542 133.713L-95.03 138.588C-95.8999 140.127 -96.3039 141.913 -96.1541 143.739L-96.1548 143.734C-96.0102 145.473 -95.3657 147.122 -94.287 148.504L-90.9652 152.751C-91.8909 154.358 -92.3257 156.23 -92.1683 158.123L-92.1737 158.124C-92.0127 160.035 -91.2741 161.824 -90.0312 163.299L-86.952 166.95C-87.916 168.606 -88.358 170.53 -88.194 172.503C-88.0207 174.598 -87.1827 176.527 -85.7709 178.089L-82.9614 181.195C-83.9437 182.899 -84.3964 184.874 -84.2297 186.889C-84.0434 189.13 -83.0825 191.255 -81.5159 192.879L-79.0074 195.477C-79.9938 197.221 -80.448 199.236 -80.2768 201.272C-80.0788 203.69 -79.0071 205.96 -77.2616 207.665L-75.0763 209.794C-76.0498 211.568 -76.4966 213.61 -76.3286 215.66C-76.1121 218.267 -74.9304 220.674 -73.0019 222.449L-71.1719 224.133C-72.1323 225.928 -72.5575 227.961 -72.3864 230.044L-72.3871 230.039C-72.1575 232.834 -70.8644 235.391 -68.7476 237.234L-67.2872 238.507C-68.2163 240.317 -68.6249 242.353 -68.4548 244.429C-68.2068 247.413 -66.7982 250.107 -64.4931 252.019L-63.4207 252.907C-64.3089 254.728 -64.6967 256.758 -64.5288 258.815C-64.2678 261.944 -62.7061 264.859 -60.2389 266.804L-59.5671 267.334C-60.4116 269.155 -60.777 271.173 -60.608 273.202C-60.3333 276.525 -58.6448 279.581 -55.9852 281.584L-55.7208 281.783C-56.5171 283.6 -56.8578 285.598 -56.6918 287.594L-56.6865 287.594C-56.4038 291.042 -54.6534 294.189 -51.8842 296.256C-52.626 298.058 -52.9391 300.023 -52.7764 301.982C-52.4892 305.449 -50.7794 308.598 -48.0532 310.721C-48.7524 312.504 -49.0348 314.418 -48.8717 316.37C-48.5796 319.861 -46.907 323.016 -44.2192 325.197C-44.8693 326.962 -45.1266 328.845 -44.9669 330.759L-44.9729 330.754C-44.6801 334.274 -43.0347 337.438 -40.3871 339.669C-40.9946 341.416 -41.2297 343.27 -41.0729 345.149L-41.0676 345.148C-40.7818 348.633 -39.1309 351.86 -36.5429 354.14C-37.1078 355.869 -37.3237 357.696 -37.1736 359.538L-37.1789 359.539C-36.8846 363.044 -35.2621 366.285 -32.7046 368.615C-33.2333 370.324 -33.4303 372.12 -33.2796 373.928C-32.9887 377.461 -31.3912 380.709 -28.8642 383.083C-29.3584 384.773 -29.539 386.543 -29.391 388.319L-29.3964 388.319C-29.1009 391.877 -27.5232 395.142 -25.023 397.561C-25.4829 399.229 -25.6474 400.968 -25.5022 402.709C-25.2061 406.291 -23.6539 409.571 -21.184 412.032C-21.6127 413.68 -21.7634 415.393 -21.6236 417.107L-21.6243 417.101C-21.1866 422.352 -18.1392 426.939 -13.4706 429.378L399.775 645.321C403.394 647.212 407.54 647.59 411.445 646.37C415.351 645.156 418.546 642.498 420.443 638.883L637.133 226.631C638.482 224.06 639.069 221.178 638.834 218.296C638.402 213.05 635.354 208.457 630.686 206.019L217.44 -9.92432C215.356 -11.0136 213.097 -11.599 210.81 -11.6678C209.3 -12.2174 207.724 -12.5156 206.134 -12.5577C204.608 -13.1178 203.028 -13.4064 201.458 -13.4412C199.95 -14.0072 198.368 -14.3088 196.77 -14.3389C195.271 -14.9087 193.696 -15.2106 192.102 -15.2352C190.592 -15.8161 189.017 -16.108 187.452 -16.1283C185.945 -16.7241 184.347 -17.0328 182.729 -17.0408C181.255 -17.6282 179.689 -17.9321 178.099 -17.9387C176.608 -18.5476 175.016 -18.8577 173.399 -18.8529C171.926 -19.4614 170.349 -19.7694 168.742 -19.7597C167.244 -20.3903 165.654 -20.6908 164.074 -20.6754C162.582 -21.3167 160.991 -21.6201 159.41 -21.5983C157.946 -22.2432 156.356 -22.5629 154.728 -22.5294C153.252 -23.1881 151.663 -23.495 150.084 -23.4586C148.636 -24.1277 147.042 -24.4569 145.402 -24.4074C144.035 -25.0485 142.529 -25.3772 140.974 -25.3581C140.892 -25.3571 140.81 -25.3551 140.728 -25.3522C139.268 -26.048 137.669 -26.3659 136.08 -26.3032C134.624 -27.0167 133.017 -27.3417 131.421 -27.2698C129.973 -27.9977 128.362 -28.3284 126.761 -28.2469C125.324 -28.9864 123.713 -29.3223 122.112 -29.2321C120.684 -29.9852 119.073 -30.3283 117.469 -30.2304C114.803 -31.6765 111.442 -31.6512 108.733 -29.8763L-100.368 107.186ZM115.244 -29.8005C113.319 -30.3043 111.194 -30.0241 109.402 -28.851L-99.6883 108.21C-101.914 109.668 -103.163 112.221 -102.941 114.87C-102.844 116.066 -102.44 117.234 -101.773 118.243L-98.4019 123.361C-97.8833 122.677 -97.2611 122.065 -96.5477 121.553L112.916 -28.6111C113.646 -29.1351 114.432 -29.5301 115.244 -29.8005ZM-97.6865 124.447C-97.1958 123.723 -96.5715 123.078 -95.8287 122.545L113.623 -27.6234C114.71 -28.4004 115.935 -28.8471 117.178 -28.9832C117.575 -28.7425 117.952 -28.4619 118.301 -28.1429C117.886 -27.915 117.483 -27.6513 117.097 -27.3513L-91.0086 134.586L-97.6865 124.447ZM-98.3555 125.67C-98.8306 126.775 -99.0363 127.999 -98.9333 129.257C-98.8223 130.603 -98.3425 131.897 -97.5489 133.005L-94.3079 137.503C-93.8538 136.919 -93.3231 136.386 -92.7221 135.919L-91.9828 135.344L-98.3555 125.67ZM-91.3094 136.366L-91.9689 136.879C-92.5876 137.36 -93.1205 137.922 -93.558 138.544L-86.5297 148.299L-84.5455 146.634L-91.3094 136.366ZM-83.8712 147.657L-85.816 149.289L-78.8111 159.011L-77.2922 157.644L-83.8712 147.657ZM-76.3681 156.813L-82.9228 146.861L121.08 -24.3261L122.503 -22.1661L-76.3681 156.813ZM-76.6122 158.677L-78.0924 160.009L-71.2933 169.446L-70.2061 168.401L-76.6122 158.677ZM-69.3051 167.536L-75.6882 157.845L123.185 -21.1314L124.706 -18.8218L-69.3051 167.536ZM-69.5217 169.44L-70.5709 170.448L-63.9575 179.627L-63.2721 178.927L-69.5217 169.44ZM-62.393 178.03L-68.6207 168.575L125.39 -17.7828L127.005 -15.3317L-62.393 178.03ZM-62.5845 179.971L-63.2327 180.633L-56.7921 189.572L-56.4814 189.236L-62.5845 179.971ZM-55.623 188.308L-61.7054 179.074L127.693 -14.2878L129.389 -11.7121L-55.623 188.308ZM-55.7888 190.287L-56.063 190.584L-50.5851 198.187L-55.7888 190.287ZM-48.9828 198.389L-54.9304 189.359L130.083 -10.658L131.856 -7.96655L-48.9828 198.389ZM-42.4664 208.282L-48.287 199.445L132.55 -6.91316L134.399 -4.10697L-42.4664 208.282ZM-36.0661 217.999L-41.7657 209.346L135.103 -3.03776L137.008 -0.144768L-36.0661 217.999ZM-33.4661 221.947L-35.3562 219.077L137.72 0.935605L139.688 3.92346L-29.5891 227.327L-33.4661 221.947ZM-13.9035 251.646L-15.4018 249.372L-13.0023 252.44L-11.6426 254.327L-13.9035 251.646ZM-14.8434 252.444L-12.1769 256.492L-12.6074 257.136L-18.7903 250.301L-17.8234 248.911L-14.8434 252.444ZM-23.6151 239.128L-20.5957 243.712L-24.0064 239.668L-23.6151 239.128ZM-24.6957 237.488L-24.3357 238.034L-24.8204 238.703L-31.0631 231.301L-30.3107 230.308L-24.6957 237.488ZM-34.5223 222.571L-32.9908 224.895L-36.4567 220.464L-36.2384 220.189L-34.5223 222.571ZM-11.4475 257.599L-9.4615 260.614L-11.7624 258.07L-11.4475 257.599ZM-5.50154 264.402L-8.15442 260.375L-5.17965 263.902L-5.50154 264.402ZM-4.07371 266.57L-4.76508 265.52L-4.35382 264.881L-2.19386 267.442L1.13322 272.059L1.0352 272.218L-4.07371 266.57ZM-5.02578 267.347L-5.56016 266.757L-6.72789 268.573L-0.623743 274.895L-0.347657 274.449L-5.02578 267.347ZM0.394566 275.576L0.253634 275.803L1.16861 276.751L0.394566 275.576ZM5.77337 281.52L1.10411 274.431L1.21709 274.249L7.01332 280.656L6.21994 281.982L5.77337 281.52ZM4.82654 282.304L5.45602 283.259L4.21249 285.338L-1.9402 279.343L-0.41234 276.878L4.82654 282.304ZM6.20655 284.399L11.1952 291.972L11.1322 292.08L5.11725 286.22L6.20655 284.399ZM11.8788 290.789L9.43047 287.072L12.306 290.05L11.8788 290.789ZM15.5911 296.425L12.6328 291.934L13.1915 290.967L18.9261 296.906L17.9239 298.698L15.5911 296.425ZM14.6521 297.219L16.8687 300.584L15.7993 302.496L9.74627 296.926L11.4057 294.056L14.6521 297.219ZM17.6267 301.735L21.7107 307.935L16.7247 303.347L17.6267 301.735ZM23.1409 307.887L18.7338 301.196L23.991 306.318L23.1409 307.887ZM25.4201 311.347L23.9038 309.045L24.9011 307.205L30.1149 312.285L30.5072 312.83L29.3742 314.985L25.4201 311.347ZM24.4841 312.145L22.976 310.757L21.2075 314.02L27.1561 319.205L28.0345 317.534L24.4841 312.145ZM28.6828 316.301L28.1929 315.557L28.7866 316.103L28.6828 316.301ZM28.8055 318.705L28.1068 320.034L31.8042 323.257L28.8055 318.705ZM35.2333 326.246L29.4538 317.471L29.721 316.963L40.8872 327.237L42.8083 329.903C41.5057 330.116 40.1722 329.968 38.9571 329.492L35.2333 326.246ZM34.3161 327.07L34.535 327.402C35.4868 328.85 36.81 329.91 38.2977 330.54L51.6574 342.186L51.9242 342.556C52.8203 343.799 53.9857 344.737 55.2842 345.347L69.0215 357.321L69.3242 357.708C70.1444 358.758 71.1543 359.576 72.2685 360.151L86.363 372.437L86.7122 372.851C87.4447 373.72 88.3048 374.42 89.2425 374.947L103.753 387.595L104.117 387.997C104.742 388.689 105.447 389.268 106.205 389.732L121.03 402.654L121.499 403.141C122.021 403.68 122.59 404.147 123.194 404.541L138.44 417.83L138.903 418.282C139.287 418.655 139.693 418.992 140.117 419.292L153.981 431.377L25.5111 324.972L27.5216 321.147L34.3161 327.07ZM40.9023 331.187C41.7956 331.264 42.7041 331.202 43.5924 330.992L48.5126 337.821L40.9023 331.187ZM45.8203 330.117L52.687 336.435L47.1045 329.297L46.293 329.828C46.1375 329.93 45.9799 330.026 45.8203 330.117ZM48.4335 328.425L52.9713 332.847L48.9542 328.084L48.4335 328.425ZM48.1364 327.159L47.5372 327.552L46.5188 326.56L42.0908 320.898L48.1364 327.159ZM50.5973 327.007L63.9877 341.81L64.7436 342.592L272.861 193.39C275.026 191.837 276.183 189.333 275.966 186.678L275.96 186.679C275.849 185.332 275.369 184.038 274.576 182.936L173.739 42.9742L170.698 48.7609L257.83 181.039C258.606 182.22 259.078 183.586 259.195 184.98C259.452 188.077 257.997 191.064 255.389 192.767L50.5973 327.007ZM170.043 50.0068L256.794 181.71C257.461 182.719 257.87 183.886 257.967 185.082L257.973 185.086C258.19 187.736 256.941 190.289 254.716 191.753L49.7678 326.09L36.6928 311.636L34.1228 308.589L170.043 50.0068ZM169.925 47.5884L172.936 41.8598L170.525 38.5121L167.555 43.9905L169.925 47.5884ZM166.889 45.2195L169.27 48.8343L33.2687 307.576L28.0521 301.391L166.889 45.2195ZM166.792 42.8323L169.731 37.4106L167.349 34.104L164.453 39.2804L166.792 42.8323ZM163.775 40.4917L166.126 44.0613L27.2055 300.387L21.8998 294.097L163.775 40.4917ZM163.695 38.1297L166.56 33.0088L164.21 29.7479L161.389 34.6286L163.695 38.1297ZM160.699 35.8215L163.017 39.3409L21.057 293.097L15.6596 286.698L160.699 35.8215ZM160.632 33.4806L163.423 28.6545L161.106 25.439L158.36 30.0301L160.632 33.4806ZM157.657 31.204L159.943 34.6735L14.8197 285.702L11.3148 281.546L9.387 279.082L157.657 31.204ZM157.612 28.8951L160.326 24.3572L158.045 21.1907L155.375 25.4991L157.612 28.8951ZM154.66 26.6531L156.91 30.0689L8.57565 278.044L3.15794 271.117L154.66 26.6531ZM154.632 24.3718L157.27 20.1153L155.033 17.0092L152.439 21.0422L154.632 24.3718ZM151.711 22.1755L153.917 25.5258L2.35426 270.089L-3.16505 263.032L151.711 22.1755ZM151.699 19.919L154.26 15.9368L152.061 12.8845L149.545 16.6491L151.699 19.919ZM148.803 17.7609L150.971 21.0523L-3.96379 262.011L-9.58915 254.818L148.803 17.7609ZM148.814 15.539L151.297 11.8238L149.139 8.82958L146.703 12.3334L148.814 15.539ZM145.945 13.4228L148.071 16.6508L-10.3815 253.805L-12.0403 251.684L-15.9643 246.238L145.945 13.4228ZM145.98 11.2362L148.383 7.78028L146.276 4.85527L143.918 8.10644L145.98 11.2362ZM143.145 9.17232L145.222 12.3255L-16.722 245.186L-22.3467 237.379L143.145 9.17232ZM143.2 7.01526L145.524 3.81073L143.468 0.957907L141.19 3.96452L143.2 7.01526ZM140.401 5.00588L142.427 8.08111L-23.1012 236.332L-28.84 228.367L140.401 5.00588ZM140.477 2.88213L142.721 -0.0792311L140.724 -2.85079L138.526 -0.0801042L140.477 2.88213ZM137.814 -1.16048L139.978 -3.88713L138.045 -6.57018L135.926 -4.02663L137.814 -1.16048ZM135.222 -5.09585L137.305 -7.59696L135.43 -10.1993L133.392 -7.87393L135.222 -5.09585ZM132.698 -8.9273L134.7 -11.2119L132.903 -13.7064L130.945 -11.5892L132.698 -8.9273ZM130.25 -12.6433L132.172 -14.7209L130.454 -17.1065L128.574 -15.188L130.25 -12.6433ZM127.887 -16.2319L129.729 -18.1125L128.095 -20.3805L126.294 -18.6504L127.887 -16.2319ZM125.609 -19.6894L127.372 -21.383L125.835 -23.5167L124.111 -21.9646L125.609 -19.6894ZM123.429 -22.9993L125.115 -24.5166L124.11 -25.9119C124.018 -26.0385 123.924 -26.1613 123.826 -26.2805C123.209 -25.9907 122.618 -25.617 122.072 -25.1582L122.03 -25.123L123.429 -22.9993ZM121.352 -26.1524C121.851 -26.5625 122.38 -26.9118 122.931 -27.2011C122.587 -27.4984 122.22 -27.7607 121.836 -27.9869C121.33 -27.9361 120.828 -27.8358 120.337 -27.6851C120.391 -27.6081 120.444 -27.53 120.497 -27.4507L121.352 -26.1524ZM119.155 -27.2133C118.702 -26.9873 118.265 -26.7135 117.85 -26.3911L-90.3353 135.608L-83.5971 145.838L120.402 -25.3558L119.467 -26.7758C119.368 -26.9266 119.264 -27.0724 119.155 -27.2133ZM119.502 -28.6901C119.611 -28.7304 119.72 -28.7685 119.831 -28.8044C119.645 -28.8505 119.457 -28.8896 119.268 -28.9216C119.347 -28.8462 119.425 -28.769 119.502 -28.6901ZM46.3493 328.331L45.6195 328.809C45.3746 328.969 45.1235 329.113 44.8676 329.24L41.8178 326.434L35.177 317.217L45.6005 327.373L46.3493 328.331ZM-94.9369 143.639C-95.0516 142.261 -94.7981 140.907 -94.2294 139.699L-87.4669 149.085L-88.8964 150.285C-89.3998 150.706 -89.8516 151.176 -90.2476 151.685L-93.3207 147.755C-94.2558 146.562 -94.8115 145.142 -94.9369 143.639ZM-88.1091 151.213L-86.7532 150.076L-79.7236 159.833L-82.1602 162.025L-89.4681 152.681C-89.0822 152.143 -88.6272 151.649 -88.1091 151.213ZM-81.4055 162.99L-79.005 160.83L-72.1824 170.3L-74.1849 172.223L-81.4055 162.99ZM-73.4273 173.192L-71.4601 171.302L-64.8245 180.512L-66.4246 182.146L-73.4273 173.192ZM-65.6653 183.117L-64.0997 181.518L-57.6382 190.487L-58.8645 191.812L-65.6653 183.117ZM-58.1016 192.788L-56.9091 191.498L-50.6083 200.244L-51.4866 201.246L-58.1016 192.788ZM-50.7218 202.224L-49.8766 201.259L-43.7265 209.796L-44.2802 210.46L-50.7218 202.224ZM-43.5119 211.443L-42.9906 210.817L-36.9831 219.155L-37.2335 219.471L-43.5119 211.443ZM8.62173 280.361L9.48351 281.557L11.5924 283.888L10.5033 282.496L8.65534 280.305L8.62173 280.361ZM13.1025 288.672L8.55297 282.358L7.8753 281.609L7.10415 282.898L12.9442 288.946L13.1025 288.672ZM2.07663 273.369L1.90762 273.134L1.89006 273.163L2.07663 273.369ZM14.3448 290.397L13.8879 289.763L13.8297 289.863L14.3448 290.397ZM15.9602 290.546L19.6328 295.643L19.9914 295.002L15.9602 290.546ZM18.8311 299.582L19.7627 297.917L24.7745 304.873L24.5971 305.2L18.8311 299.582ZM25.2969 303.505L25.422 303.678L25.4373 303.65L25.2969 303.505ZM25.5071 306.087L25.5681 305.974L25.9835 306.551L25.5071 306.087ZM26.2156 304.78L31.0454 311.483L31.1576 311.592L31.8444 310.286L26.3279 304.572L26.2156 304.78ZM37.3421 322.316L31.3088 313.942L30.3086 315.845L37.3421 322.316ZM45.3636 331.356L52.5698 341.357L55.9584 344.311C57.0238 344.783 58.1872 345.003 59.3495 344.954L57.3138 342.351L45.3636 331.356ZM60.2437 346.097C59.5106 346.2 58.7701 346.208 58.0407 346.126L65.0323 352.22L60.2437 346.097ZM67.4665 350.033L62.5 345.463C62.7658 345.348 63.0278 345.218 63.2847 345.075L67.4665 350.033ZM80.4167 358.824L65.6018 343.481L273.575 194.383C276.048 192.605 277.432 189.616 277.183 186.578C277.055 185.011 276.499 183.508 275.574 182.222L174.376 41.7622L177.039 36.6959L292.358 184.152C293.293 185.345 293.849 186.771 293.974 188.268L293.973 188.262C294.192 190.885 293.086 193.409 291.01 195.022L81.1913 358.292C80.9409 358.487 80.6822 358.665 80.4167 358.824ZM176.209 35.6339L173.573 40.6478L171.173 37.3158L173.773 32.5188L176.209 35.6339ZM172.951 31.4685L170.379 36.2143L168.009 32.9241L170.545 28.3911L172.951 31.4685ZM169.727 27.3462L167.22 31.8289L164.883 28.5851L167.354 24.3109L169.727 27.3462ZM166.537 23.2668L164.095 27.4916L161.791 24.2938L164.196 20.2731L166.537 23.2668ZM163.388 19.2396L161.011 23.2121L158.743 20.064L161.082 16.2909L163.388 19.2396ZM160.278 15.2628L157.969 18.9886L155.745 15.9018L158.015 12.3702L160.278 15.2628ZM157.213 11.3441L154.972 14.8294L152.787 11.7972L154.99 8.50112L157.213 11.3441ZM154.195 7.4854L152.023 10.7365L149.881 7.76328L152.014 4.6962L154.195 7.4854ZM151.228 3.69068L149.125 6.714L147.033 3.81094L149.097 0.965853L151.228 3.69068ZM148.313 -0.035946L146.281 2.76643L144.242 -0.0634034L146.235 -2.69348L148.313 -0.035946ZM145.456 -3.68908L143.495 -1.10052L141.515 -3.84797L143.437 -6.27051L145.456 -3.68908ZM142.659 -7.26637L140.769 -4.88431L138.854 -7.54205L140.705 -9.76467L142.659 -7.26637ZM139.932 -10.7524L138.114 -8.56885L136.258 -11.1447L138.038 -13.1752L139.932 -10.7524ZM137.275 -14.1501L135.529 -12.1572L133.752 -14.6237L135.46 -16.4708L137.275 -14.1501ZM134.695 -17.4488L133.021 -15.6383L131.323 -17.9944L132.961 -19.6665L134.695 -17.4488ZM132.202 -20.6373L130.598 -19.0004L128.987 -21.2373L130.499 -22.6901C130.518 -22.7079 130.536 -22.7256 130.555 -22.7432L132.202 -20.6373ZM129.652 -23.5731L128.264 -22.2399L126.764 -24.322C127.309 -24.7433 127.892 -25.0873 128.499 -25.3549C128.586 -25.2553 128.67 -25.153 128.752 -25.048L129.798 -23.7105C129.749 -23.6653 129.701 -23.6195 129.652 -23.5731ZM127.563 -26.2659C127.036 -26.0015 126.529 -25.6851 126.048 -25.3163L125.108 -26.6209C125.082 -26.6576 125.055 -26.694 125.028 -26.7302C125.508 -26.867 125.997 -26.958 126.489 -27.004C126.864 -26.7906 127.223 -26.5443 127.563 -26.2659ZM124.409 -27.8193C124.324 -27.7923 124.24 -27.7641 124.156 -27.7346C124.097 -27.7934 124.036 -27.8511 123.976 -27.9079C124.121 -27.8825 124.265 -27.8529 124.409 -27.8193ZM61.5002 344.543C61.8332 344.427 62.1607 344.286 62.48 344.121L61.0556 342.432L52.1326 333.738L58.231 341.535L61.5002 344.543ZM-90.1415 153.804C-90.7787 155.094 -91.0678 156.549 -90.9464 158.017C-90.8067 159.675 -90.1637 161.226 -89.0872 162.505L-86.2333 165.888C-85.8876 165.446 -85.4997 165.03 -85.0714 164.646L-83.071 162.845L-90.1415 153.804ZM-82.3163 163.81L-84.2541 165.554C-84.6938 165.95 -85.0847 166.383 -85.4238 166.848L-77.8894 175.781L-75.0711 173.074L-82.3163 163.81ZM-74.3135 174.043L-77.099 176.719L-69.7007 185.49L-67.2876 183.027L-74.3135 174.043ZM-66.5284 183.998L-68.9094 186.429L-61.7435 194.925L-59.7056 192.722L-66.5284 183.998ZM-58.9428 193.697L-60.9493 195.866L-53.9965 204.11L-52.3069 202.182L-58.9428 193.697ZM-51.5422 203.16L-53.2011 205.053L-46.4464 213.062L-45.0809 211.422L-51.5422 203.16ZM-44.3126 212.404L-45.6483 214.008L-39.0791 221.797L-38.0155 220.456L-44.3126 212.404ZM-37.2387 221.45L-38.2728 222.753L-31.8727 230.341L-31.0913 229.31L-37.2387 221.45ZM34.8231 311.605L33.6255 310.074L35.6695 312.333L36.6588 313.506L34.8231 311.605ZM22.153 297.392L26.0963 302.434L26.0501 302.519L20.4388 296.708L20.8575 295.96L22.153 297.392ZM33.9103 312.425L39.9866 320.195L32.0744 312.486L32.7421 311.216L33.9103 312.425ZM69.9177 356.479L62.8585 347.452L73.7158 357.442L75.7942 359.906C74.8102 359.828 73.8424 359.563 72.9485 359.12L69.9177 356.479ZM75.1894 361.074C75.7359 361.149 76.2892 361.174 76.8416 361.148L81.1915 366.305L75.1894 361.074ZM79.1129 360.748L81.2222 362.689L79.3852 360.658C79.3353 360.676 79.2853 360.693 79.2352 360.709C79.1945 360.722 79.1537 360.735 79.1129 360.748ZM81.2898 359.729L92.886 371.738L95.8679 374.644C96.9786 374.351 98.0433 373.816 98.9796 373.03L309.161 196.659C311.152 194.986 312.212 192.446 311.998 189.855L311.999 189.861C311.864 188.201 311.221 186.65 310.139 185.367L179.998 31.0663L177.663 35.5094L293.324 183.403C294.402 184.785 295.052 186.433 295.197 188.172C295.445 191.199 294.162 194.127 291.765 195.993L81.9458 359.263C81.7321 359.429 81.5132 359.584 81.2898 359.729ZM176.833 34.4474L179.143 30.0519L176.688 27.1407L174.408 31.347L176.833 34.4474ZM173.586 30.2967L175.841 26.1369L173.415 23.2605L171.192 27.2346L173.586 30.2967ZM170.374 26.1896L172.572 22.2613L170.179 19.4238L168.013 23.1702L170.374 26.1896ZM167.197 22.1261L169.336 18.4248L166.976 15.6258L164.868 19.1489L167.197 22.1261ZM164.06 18.1155L166.141 14.6365L163.816 11.8792L161.768 15.1841L164.06 18.1155ZM160.964 14.156L162.985 10.8942L160.704 8.18949L158.716 11.2815L160.964 14.156ZM157.913 10.2554L159.874 7.20568L157.632 4.547L155.704 7.43125L157.913 10.2554ZM154.91 6.41552L156.81 3.57246L154.61 0.963901L152.744 3.64609L154.91 6.41552ZM151.958 2.64058L153.795 -0.00147603L151.646 -2.54973L149.843 -0.0635366L151.958 2.64058ZM149.06 -1.06533L150.834 -3.51231L148.738 -5.99742L146.998 -3.70113L149.06 -1.06533ZM146.22 -4.69673L147.931 -6.95483L145.895 -9.36826L144.219 -7.25532L146.22 -4.69673ZM143.44 -8.25119L145.087 -10.3268L143.117 -12.6617L141.505 -10.7255L143.44 -8.25119ZM140.733 -11.7132L142.315 -13.6134L140.405 -15.8772L138.858 -14.1107L140.733 -11.7132ZM138.095 -15.0857L139.613 -16.8173L137.785 -18.9841L136.301 -17.3797L138.095 -15.0857ZM135.536 -18.3577L136.989 -19.9282L135.264 -21.9735C135.077 -21.8116 134.895 -21.6412 134.72 -21.4625L133.824 -20.5473L135.536 -18.3577ZM133.065 -21.5181L133.845 -22.3147C134.048 -22.5222 134.259 -22.7198 134.476 -22.9074L133.395 -24.1896C133.323 -24.2743 133.25 -24.3573 133.176 -24.4383C132.593 -24.198 132.031 -23.8909 131.501 -23.5171L133.065 -21.5181ZM130.747 -24.4821C131.211 -24.8139 131.697 -25.1005 132.2 -25.3418C131.868 -25.6007 131.52 -25.8304 131.159 -26.0306C130.677 -25.9902 130.199 -25.9081 129.728 -25.7842L130.747 -24.4821ZM128.819 -26.7877C128.879 -26.808 128.94 -26.8276 129.001 -26.8466C128.897 -26.8697 128.792 -26.8908 128.687 -26.9098C128.731 -26.8696 128.775 -26.8289 128.819 -26.7877ZM78.4778 359.655C78.3328 359.695 78.1869 359.73 78.0405 359.761L74.6575 356.649L70.0943 351.239L76.5843 357.562L78.4778 359.655ZM-86.9715 172.402C-87.1015 170.835 -86.7943 169.306 -86.1045 167.955L-78.781 176.638L-81.2465 179.006C-81.6155 179.361 -81.9533 179.74 -82.2583 180.139L-84.8577 177.266C-86.0917 175.904 -86.8221 174.223 -86.9715 172.402ZM-80.3997 179.889L-77.9906 177.575L-70.5678 186.376L-73.7126 189.586L-81.4216 181.064C-81.12 180.647 -80.7786 180.253 -80.3997 179.889ZM-72.8916 190.494L-69.7766 187.314L-62.5875 195.837L-65.3532 198.827L-72.8916 190.494ZM-64.53 199.737L-61.7934 196.779L-54.8186 205.048L-57.2333 207.804L-64.53 199.737ZM-56.4096 208.714L-54.0233 205.991L-47.248 214.024L-49.337 216.533L-56.4096 208.714ZM-48.5111 217.446L-46.4498 214.971L-39.861 222.782L-41.6472 225.034L-48.5111 217.446ZM-40.8136 225.955L-39.0547 223.738L-32.636 231.349L-34.1397 233.333L-40.8136 225.955ZM-33.3032 234.258L-31.8264 232.308L-25.566 239.731L-26.8058 241.44L-33.3032 234.258ZM-25.9654 242.369L-24.752 240.696L-18.6395 247.943L-19.6322 249.37L-25.9654 242.369ZM61.175 340.663L62.0122 341.656L63.5573 343.161L63.1156 342.673L61.175 340.663ZM80.907 364.059L87.2728 371.606L89.9271 373.92C90.6183 374.298 91.3568 374.57 92.1162 374.731L90.1773 372.588L80.907 364.059ZM93.3778 376.126C93.0291 376.11 92.6816 376.075 92.3368 376.02L96.807 379.917L93.3778 376.126ZM111.528 389.903L96.8674 375.618C97.897 375.258 98.8795 374.711 99.7629 373.97L309.943 197.593C312.241 195.669 313.463 192.739 313.215 189.755C313.06 187.843 312.316 186.054 311.073 184.58L180.611 29.9008L182.66 26.0021L327.925 186.583C329.153 187.94 329.884 189.626 330.034 191.447L330.033 191.442C330.249 194.048 329.26 196.546 327.316 198.295L116.774 387.773C115.271 389.125 113.407 389.829 111.528 389.903ZM181.782 25.0311L179.756 28.8864L177.312 25.9889L179.311 22.2997L181.782 25.0311ZM178.442 21.3384L176.465 24.9851L174.051 22.1231L176 18.6395L178.442 21.3384ZM175.134 17.682L173.208 21.1239L170.828 18.3015L172.725 15.0194L175.134 17.682ZM171.859 14.0616L169.985 17.3024L167.638 14.5191L169.483 11.4348L171.859 14.0616ZM168.624 10.4858L166.803 13.5298L164.491 10.7888L166.283 7.89796L168.624 10.4858ZM165.428 6.9525L163.661 9.80385L161.394 7.11627L163.131 4.41407L165.428 6.9525ZM162.277 3.4691L160.564 6.13244L158.337 3.49166L160.019 0.973679L162.277 3.4691ZM159.172 0.0370255L157.515 2.51712L155.33 -0.0726822L156.957 -2.41142L159.172 0.0370255ZM156.117 -3.33986L154.516 -1.03804L152.384 -3.56662L153.953 -5.73152L156.117 -3.33986ZM153.115 -6.65792L151.572 -4.52918L149.493 -6.99362L151.006 -8.99003L153.115 -6.65792ZM150.172 -9.91217L148.686 -7.95101L146.668 -10.3427L148.123 -12.1764L150.172 -9.91217ZM147.287 -13.1005L145.86 -11.3013L143.91 -13.6133L145.306 -15.2903L147.287 -13.1005ZM144.476 -16.2084L143.107 -14.5649L141.218 -16.8046L142.556 -18.3309L144.476 -16.2084ZM141.735 -19.2387L140.425 -17.7447L138.619 -19.886L138.937 -20.229C139.259 -20.5782 139.605 -20.8989 139.97 -21.1898L141.735 -19.2387ZM138.032 -21.0556L137.823 -20.83L136.24 -22.7073C136.747 -23.0368 137.285 -23.3122 137.846 -23.5304C137.911 -23.4634 137.975 -23.3952 138.037 -23.3256L139.148 -22.098C138.755 -21.7805 138.382 -21.4325 138.032 -21.0556ZM136.828 -24.4255C136.349 -24.2039 135.887 -23.9441 135.446 -23.6479L134.435 -24.8472C134.892 -24.9576 135.355 -25.0304 135.822 -25.0656C136.169 -24.8784 136.505 -24.665 136.828 -24.4255ZM133.585 -25.8817C133.57 -25.8771 133.555 -25.8724 133.539 -25.8677C133.521 -25.862 133.503 -25.8563 133.485 -25.8505L133.465 -25.8683L133.445 -25.8863C133.434 -25.8963 133.423 -25.9062 133.412 -25.9161C133.45 -25.909 133.487 -25.9017 133.525 -25.8942C133.545 -25.8901 133.565 -25.8859 133.585 -25.8817ZM-82.0923 182.156C-82.8195 183.565 -83.1469 185.164 -83.0125 186.789C-82.8508 188.75 -82.0056 190.607 -80.6329 192.033L-78.3225 194.426C-78.0482 194.057 -77.7473 193.704 -77.4208 193.372L-74.5744 190.466L-82.0923 182.156ZM-73.7533 191.374L-76.5453 194.224C-76.8812 194.567 -77.1862 194.934 -77.4588 195.32L-69.619 203.439L-66.1911 199.733L-73.7533 191.374ZM-65.3679 200.643L-68.7687 204.32L-61.1212 212.24L-58.0487 208.734L-65.3679 200.643ZM-57.225 209.645L-60.271 213.121L-52.8745 220.781L-50.1311 217.487L-57.225 209.645ZM-49.3053 218.399L-52.0229 221.663L-44.8591 229.082L-42.4212 226.009L-49.3053 218.399ZM-41.5876 226.931L-44.0002 229.972L-37.0482 237.171L-34.8947 234.329L-41.5876 226.931ZM-34.0582 235.254L-36.1869 238.063L-29.4309 245.06L-27.5427 242.457L-34.0582 235.254ZM-26.7023 243.385L-28.5663 245.956L-21.9923 252.764L-20.352 250.405L-26.7023 243.385ZM-19.51 251.336L-21.1266 253.661L-14.719 260.297L-13.3108 258.189L-19.51 251.336ZM-12.4657 259.123L-13.8507 261.196L-7.60146 267.668L-6.41085 265.816L-12.4657 259.123ZM91.0766 371.756L90.5182 371.138L91.8935 372.478L92.1434 372.737L91.0766 371.756ZM104.619 386.726L100.031 381.655L106.503 387.609L108.182 389.348C107.748 389.18 107.327 388.976 106.922 388.734L104.619 386.726ZM109.503 390.984C109.605 391.002 109.707 391.018 109.809 391.033L111.131 392.402L109.503 390.984ZM112.676 391.021L123.864 401.922L126.956 404.767C129.613 405.276 132.47 404.534 134.564 402.523L345.467 199.937C347.34 198.138 348.288 195.623 348.075 193.038L348.08 193.037C347.918 191.077 347.072 189.214 345.706 187.793L185.063 21.4313L183.266 24.85L328.834 185.765C330.246 187.328 331.084 189.257 331.256 191.346C331.505 194.335 330.367 197.2 328.14 199.208L117.592 388.687C116.163 389.973 114.449 390.747 112.676 391.021ZM182.388 23.8789L184.164 20.5L181.68 17.9282L179.929 21.1605L182.388 23.8789ZM179.059 20.1993L180.79 17.0058L178.336 14.4645L176.63 17.5139L179.059 20.1993ZM175.764 16.5565L177.448 13.5453L175.027 11.0381L173.368 13.9081L175.764 16.5565ZM172.501 12.9503L174.139 10.118L171.75 7.64427L170.138 10.3383L172.501 12.9503ZM169.28 9.38931L170.869 6.73235L168.516 4.29506L166.953 6.81693L169.28 9.38931ZM166.098 5.87147L167.638 3.38598L165.33 0.995444L163.816 3.34931L166.098 5.87147ZM162.961 2.40432L164.452 0.086253L162.182 -2.26389L160.719 -0.0740659L162.961 2.40432ZM159.872 -1.01072L161.312 -3.16559L159.085 -5.4715L157.673 -3.4413L159.872 -1.01072ZM156.833 -4.36973L158.221 -6.36581L156.047 -8.61798L154.687 -6.7426L156.833 -4.36973ZM153.849 -7.66899L155.184 -9.51093L153.064 -11.7067L151.757 -9.98134L153.849 -7.66899ZM150.923 -10.9035L152.205 -12.5962L150.147 -14.7274L148.893 -13.1469L150.923 -10.9035ZM148.057 -14.0709L149.286 -15.6195L147.296 -17.6798L146.096 -16.2387L148.057 -14.0709ZM145.266 -17.1569L146.416 -18.5387L146.44 -18.5668L144.67 -20.4002C144.21 -20.0629 143.774 -19.6798 143.371 -19.2515L145.266 -17.1569ZM142.553 -20.1558C142.95 -20.5696 143.373 -20.9451 143.818 -21.2821L142.674 -22.4664C142.623 -22.5197 142.571 -22.5721 142.519 -22.6237C141.985 -22.4281 141.471 -22.1833 140.983 -21.8916L142.553 -20.1558ZM140.149 -22.8134C140.569 -23.0778 141.006 -23.3112 141.458 -23.5123C141.141 -23.737 140.812 -23.9377 140.473 -24.1145C140.022 -24.0835 139.579 -24.0195 139.144 -23.9235L140.149 -22.8134ZM138.149 -24.9271L138.151 -24.9278L138.147 -24.9285L138.149 -24.9271ZM-79.0542 201.171C-79.1917 199.505 -78.8569 197.858 -78.1136 196.403L-70.4513 204.339L-73.5952 207.738C-73.888 208.054 -74.1592 208.387 -74.4081 208.733L-76.404 206.788C-77.9383 205.291 -78.8768 203.298 -79.0542 201.171ZM-72.6957 208.565L-69.601 205.22L-61.9306 213.164L-65.5832 217.332L-73.5198 209.599C-73.2716 209.237 -72.9965 208.891 -72.6957 208.565ZM-64.7083 218.184L-61.0804 214.044L-53.6624 221.727L-56.9815 225.713L-64.7083 218.184ZM-56.1061 226.566L-52.8109 222.609L-45.6268 230.05L-48.637 233.844L-56.1061 226.566ZM-47.7545 234.703L-44.7679 230.939L-37.7966 238.159L-40.5196 241.753L-47.7545 234.703ZM-39.6353 242.614L-36.9354 239.051L-30.1611 246.067L-32.6166 249.453L-39.6353 242.614ZM-31.7294 250.318L-29.2965 246.963L-22.7052 253.789L-24.9112 256.961L-31.7294 250.318ZM-24.0234 257.826L-21.8396 254.686L-15.4155 261.339L-17.3881 264.291L-24.0234 257.826ZM-16.4983 265.158L-14.5473 262.238L-8.28231 268.727L-10.0362 271.455L-16.4983 265.158ZM-9.14156 272.326L-7.40878 269.632L-1.28969 275.969L-2.83835 278.468L-9.14156 272.326ZM121.806 401.689L121.915 401.803L122.177 402.031L121.806 401.689ZM142.81 419.353L128.441 406.133C130.944 406.168 133.463 405.26 135.404 403.396L346.308 200.816C348.447 198.759 349.536 195.889 349.291 192.932C349.111 190.697 348.144 188.566 346.578 186.948L185.662 20.2926L187.239 17.2907L363.475 189.005C365.009 190.497 365.948 192.495 366.126 194.622L366.131 194.621C366.343 197.19 365.429 199.723 363.622 201.568L152.357 417.255C149.803 419.865 146.025 420.57 142.81 419.353ZM186.321 16.3958L184.762 19.3612L182.291 16.8017L183.828 13.9663L186.321 16.3958ZM182.918 13.0796L181.4 15.8793L178.959 13.3507L180.454 10.6788L182.918 13.0796ZM179.546 9.79485L178.071 12.4315L175.663 9.93766L177.115 7.42615L179.546 9.79485ZM176.207 6.54092L174.775 9.01761L172.4 6.55785L173.808 4.20374L176.207 6.54092ZM172.907 3.32595L171.519 5.64591L169.18 3.22331L170.544 1.02315L172.907 3.32595ZM169.645 0.147585L168.302 2.31419L166.009 -0.060915L167.327 -2.11082L169.645 0.147585ZM166.428 -2.987L165.131 -0.970151L162.877 -3.30411L164.149 -5.2073L166.428 -2.987ZM163.257 -6.07673L162.007 -4.20585L159.797 -6.49474L161.021 -8.25516L163.257 -6.07673ZM160.135 -9.11792L158.933 -7.38907L156.776 -9.62333L157.952 -11.2453L160.135 -9.11792ZM157.067 -12.1073L155.914 -10.5163L153.812 -12.6932L154.939 -14.181L157.067 -12.1073ZM154.057 -15.0402L152.953 -13.5827L150.914 -15.694L151.575 -16.5266C151.714 -16.7028 151.859 -16.8731 152.007 -17.0374L154.057 -15.0402ZM150.608 -17.2855L150.053 -16.5861L148.127 -18.5804C148.518 -18.9557 148.937 -19.2958 149.379 -19.5984L151.127 -17.8952C150.948 -17.6995 150.775 -17.4963 150.608 -17.2855ZM148.488 -20.4669C148.063 -20.1623 147.658 -19.8265 147.277 -19.4609L145.723 -21.0705C146.198 -21.3305 146.691 -21.5477 147.198 -21.7217C147.237 -21.6842 147.277 -21.6462 147.317 -21.6079L148.488 -20.4669ZM146.1 -22.6024C145.673 -22.4212 145.255 -22.2115 144.851 -21.9736L143.858 -23.0019C144.278 -23.0869 144.706 -23.1434 145.141 -23.1703C145.471 -23.0019 145.791 -22.8123 146.1 -22.6024ZM-74.1603 210.686C-74.908 212.181 -75.2451 213.868 -75.106 215.559C-74.9176 217.859 -73.875 219.985 -72.1739 221.555L-70.5233 223.073C-70.2893 222.736 -70.0345 222.411 -69.7595 222.097L-66.3922 218.255L-74.1603 210.686ZM-65.5173 219.107L-68.8413 222.9C-69.1234 223.223 -69.3815 223.559 -69.6148 223.909L-61.6114 231.273L-57.7682 226.658L-65.5173 219.107ZM-56.8928 227.511L-60.7137 232.099L-52.9326 239.258L-49.4025 234.809L-56.8928 227.511ZM-48.5201 235.668L-52.0282 240.09L-44.5046 247.012L-41.2653 242.737L-48.5201 235.668ZM-40.3809 243.599L-43.5988 247.846L-36.3125 254.549L-33.3435 250.455L-40.3809 243.599ZM-32.4563 251.32L-35.4043 255.385L-28.3371 261.887L-25.6201 257.981L-32.4563 251.32ZM-24.7324 258.846L-27.4289 262.723L-20.5617 269.041L-18.0801 265.327L-24.7324 258.846ZM-17.1903 266.194L-19.6519 269.878L-12.9735 276.023L-10.7122 272.506L-17.1903 266.194ZM-9.81752 273.378L-12.0593 276.864L-5.55367 282.849L-3.49896 279.534L-9.81752 273.378ZM-2.60081 280.409L-4.63628 283.694L1.70578 289.529L3.56646 286.418L-2.60081 280.409ZM4.47123 287.3L2.62955 290.379L8.82222 296.076L10.5001 293.174L4.47123 287.3ZM144.671 421.066C147.725 421.46 150.922 420.471 153.233 418.112L364.503 202.42C366.555 200.325 367.594 197.445 367.354 194.521C367.156 192.102 366.084 189.833 364.339 188.133L187.835 16.1586L189.218 13.5273L381.257 190.22C382.957 191.784 384 193.915 384.189 196.215L384.189 196.221C384.405 198.778 383.526 201.328 381.779 203.215L170.152 432.003C166.924 435.491 161.595 435.919 157.864 433.138L156.485 431.935L144.671 421.066ZM186.916 15.2637L188.281 12.666L185.78 10.3642L184.435 12.846L186.916 15.2637ZM183.525 11.9594L184.852 9.51049L182.38 7.2358L181.073 9.57091L183.525 11.9594ZM180.166 8.68694L181.454 6.38433L179.015 4.14001L177.748 6.33116L180.166 8.68694ZM176.84 5.44592L178.088 3.28692L175.681 1.07239L174.455 3.12226L176.84 5.44592ZM173.554 2.24448L174.761 0.226173L172.39 -1.95582L171.205 -0.0441486L173.554 2.24448ZM170.306 -0.919711L171.472 -2.80034L169.146 -4.94006L168.004 -3.16322L170.306 -0.919711ZM167.105 -4.03941L168.227 -5.78562L165.941 -7.88924L164.842 -6.24407L167.105 -4.03941ZM163.949 -7.1135L165.029 -8.72869L162.786 -10.7925L161.73 -9.2755L163.949 -7.1135ZM160.845 -10.1382L161.88 -11.626L159.689 -13.6412L158.679 -12.2483L160.845 -10.1382ZM157.795 -13.1103L158.784 -14.4744L156.721 -16.3722C156.388 -16.0381 156.073 -15.6778 155.78 -15.2916L155.685 -15.1657L157.795 -13.1103ZM154.803 -16.0249L154.805 -16.0277C155.122 -16.4458 155.462 -16.8367 155.822 -17.2L154.09 -18.7935C153.67 -18.527 153.266 -18.2275 152.883 -17.8956L154.803 -16.0249ZM152.002 -18.7546C152.371 -19.0802 152.758 -19.3785 153.16 -19.6491L151.958 -20.7548C151.948 -20.7642 151.938 -20.7736 151.927 -20.783C151.911 -20.7978 151.895 -20.8125 151.879 -20.8272C151.394 -20.6699 150.923 -20.4755 150.471 -20.2459L152.002 -18.7546ZM149.552 -21.1414C149.934 -21.3536 150.328 -21.5429 150.733 -21.7083C150.438 -21.9005 150.133 -22.0748 149.821 -22.2307C149.406 -22.2088 148.992 -22.1602 148.584 -22.0851L149.552 -21.1414ZM-71.1638 229.943C-71.3076 228.206 -70.9836 226.51 -70.2383 224.992L-62.3923 232.211L-65.9337 236.463C-66.1938 236.775 -66.435 237.099 -66.6569 237.433L-67.939 236.315C-69.8117 234.681 -70.959 232.415 -71.1638 229.943ZM-64.9921 237.236L-61.4947 233.036L-53.6923 240.215L-57.6874 245.251L-65.7287 238.242C-65.5063 237.894 -65.2606 237.559 -64.9921 237.236ZM-56.7626 246.057L-52.7879 241.047L-45.2443 247.988L-48.9445 252.872L-56.7626 246.057ZM-48.0186 253.679L-44.3385 248.822L-37.0332 255.543L-40.4594 260.268L-48.0186 253.679ZM-39.5316 261.076L-36.1249 256.379L-29.0399 262.898L-32.211 267.458L-39.5316 261.076ZM-31.2837 268.266L-28.1316 263.733L-21.2474 270.068L-24.1804 274.457L-31.2837 268.266ZM-23.2521 275.267L-20.3377 270.905L-13.6431 277.064L-16.3536 281.28L-23.2521 275.267ZM-15.4213 282.092L-12.7289 277.905L-6.20791 283.905L-8.70988 287.942L-15.4213 282.092ZM-7.77464 288.758L-5.29053 284.749L1.06616 290.598L-1.24013 294.453L-7.77464 288.758ZM-0.298712 295.274L1.98992 291.448L8.19653 297.159L6.07446 300.829L-0.298712 295.274ZM7.01564 301.65L9.12055 298.009L15.1869 303.59L13.2382 307.074L7.01564 301.65ZM14.1805 307.895L16.1123 304.442L22.0482 309.903L20.2631 313.197L14.1805 307.895ZM174.503 447.641L161.052 435.917C164.579 436.712 168.427 435.663 171.05 432.825L382.678 204.037C384.654 201.898 385.653 199.006 385.411 196.109C385.195 193.508 384.012 191.095 382.084 189.321L189.806 12.408L191.017 10.104L399.036 191.425C400.914 193.059 402.056 195.32 402.261 197.797L402.267 197.796C402.486 200.381 401.655 202.886 399.944 204.839L187.955 446.734C184.489 450.684 178.462 451.09 174.503 447.641ZM190.065 9.27369L188.87 11.5466L186.38 9.25607L187.556 7.08704L190.065 9.27369ZM186.612 6.26383L185.452 8.40234L182.993 6.1394L184.132 4.10286L186.612 6.26383ZM183.19 3.28151L182.068 5.28793L179.642 3.05593L180.744 1.14937L183.19 3.28151ZM179.799 0.326108L178.715 2.20282L176.322 0.00119307L177.386 -1.7778L179.799 0.326108ZM176.449 -2.5947L175.402 -0.845017L173.045 -3.01348L174.07 -4.66772L176.449 -2.5947ZM173.135 -5.48338L172.127 -3.85801L169.817 -5.98348L170.803 -7.51601L173.135 -5.48338ZM169.865 -8.33308L168.898 -6.82906L166.628 -8.91771L167.573 -10.3314L169.865 -8.33308ZM166.642 -11.143L165.716 -9.75718L163.49 -11.8053L164.197 -12.8223C164.262 -12.916 164.329 -13.0086 164.397 -13.1L166.642 -11.143ZM163.195 -13.5168L162.584 -12.6387L160.429 -14.6212C160.743 -14.999 161.079 -15.3527 161.436 -15.6808L163.474 -13.9037C163.379 -13.7769 163.286 -13.6479 163.195 -13.5168ZM160.508 -16.4891C160.163 -16.1642 159.836 -15.8174 159.529 -15.45L157.639 -17.1889C158.008 -17.4811 158.395 -17.7457 158.795 -17.9824L160.508 -16.4891ZM157.83 -18.8235C157.45 -18.5808 157.083 -18.3147 156.729 -18.0257L155.221 -19.4136C155.656 -19.6175 156.104 -19.7896 156.561 -19.9295C156.572 -19.92 156.583 -19.9105 156.594 -19.9009L157.83 -18.8235ZM155.369 -20.8076C154.991 -20.6594 154.619 -20.4905 154.256 -20.3013L153.306 -21.1749C153.547 -21.215 153.791 -21.2464 154.037 -21.2689C154.184 -21.2823 154.33 -21.2925 154.476 -21.2995C154.78 -21.1528 155.078 -20.9889 155.369 -20.8076ZM-66.3353 239.337C-67.0636 240.877 -67.3763 242.586 -67.2322 244.329C-67.0103 246.978 -65.7643 249.378 -63.7094 251.076L-62.8133 251.818C-62.5962 251.474 -62.3597 251.14 -62.1042 250.818L-58.449 246.211L-66.3353 239.337ZM-57.5241 247.017L-61.1425 251.577C-61.4047 251.908 -61.6445 252.251 -61.8614 252.607L-53.8017 259.282L-49.6854 253.85L-57.5241 247.017ZM-48.7595 254.657L-52.857 260.064L-45.0195 266.556L-41.1808 261.263L-48.7595 254.657ZM-40.253 262.071L-44.0734 267.339L-36.4944 273.617L-32.914 268.468L-40.253 262.071ZM-31.9867 269.277L-35.5493 274.399L-28.2056 280.482L-24.866 275.483L-31.9867 269.277ZM-23.9377 276.293L-27.26 281.265L-20.1374 287.164L-17.0227 282.32L-23.9377 276.293ZM-16.0903 283.133L-19.1881 287.95L-12.2672 293.683L-9.36321 288.997L-16.0903 283.133ZM-8.42796 289.812L-11.3154 294.471L-4.58507 300.045L-1.87852 295.521L-8.42796 289.812ZM-0.937094 296.341L-3.62722 300.839L2.92953 306.269L5.4503 301.909L-0.937094 296.341ZM6.39147 302.729L3.88663 307.062L10.2817 312.359L12.6276 308.165L6.39147 302.729ZM13.5699 308.986L11.2396 313.152L17.4843 318.324L19.6655 314.3L13.5699 308.986ZM20.6099 315.123L18.4441 319.119L24.5453 324.172L26.5708 320.319L20.6099 315.123ZM177.184 450.595L191.872 462.759C196.049 466.218 202.273 465.641 205.749 461.472L418.099 206.47C419.757 204.48 420.553 201.963 420.34 199.383L420.335 199.389C420.113 196.734 418.867 194.34 416.812 192.636L192.658 6.98226L191.602 8.99047L399.845 190.506C401.956 192.35 403.254 194.901 403.484 197.696C403.724 200.615 402.792 203.438 400.862 205.642L188.874 447.543C185.893 450.942 181.217 452.012 177.184 450.595ZM190.65 8.16018L191.69 6.18076L189.176 4.09816L188.154 5.9843L190.65 8.16018ZM187.209 5.16109L188.216 3.30326L185.731 1.2451L184.743 3.0114L187.209 5.16109ZM183.801 2.19005L184.773 0.451706L182.321 -1.579L181.368 0.0697444L183.801 2.19005ZM180.424 -0.753534L181.361 -2.37457L178.941 -4.37842L178.024 -2.84504L180.424 -0.753534ZM177.087 -3.66193L177.988 -5.16809L175.604 -7.14252L174.724 -5.72193L177.087 -3.66193ZM173.788 -6.5376L174.652 -7.93135L172.315 -9.86712L171.472 -8.55651L173.788 -6.5376ZM170.534 -9.3736L171.36 -10.6577L169.107 -12.5237C168.86 -12.2238 168.627 -11.9099 168.409 -11.5825L168.258 -11.3575L170.534 -9.3736ZM167.327 -12.1691L167.387 -12.2583C167.63 -12.622 167.89 -12.9709 168.165 -13.304L166.148 -14.9742C165.808 -14.6848 165.484 -14.374 165.178 -14.0429L167.327 -12.1691ZM164.257 -14.8451C164.555 -15.169 164.868 -15.4756 165.195 -15.7639L163.497 -17.1698C163.116 -16.9582 162.749 -16.7237 162.396 -16.4674L164.257 -14.8451ZM161.452 -17.2904C161.786 -17.5459 162.134 -17.7833 162.493 -18.0018L161.242 -19.0375C160.81 -18.9129 160.386 -18.7607 159.971 -18.5813L161.452 -17.2904ZM158.962 -19.4609C159.304 -19.6293 159.653 -19.7805 160.008 -19.9143C159.73 -20.0812 159.445 -20.2336 159.154 -20.3714C158.781 -20.3562 158.409 -20.3206 158.039 -20.265L158.962 -19.4609ZM-63.3062 258.714C-63.4491 256.982 -63.1488 255.268 -62.4468 253.714L-54.543 260.26L-58.2732 265.183C-58.5292 265.521 -58.7655 265.87 -58.9816 266.23L-59.474 265.842C-61.6756 264.102 -63.072 261.504 -63.3062 258.714ZM-57.2928 265.919L-53.5983 261.043L-45.741 267.551L-49.9511 273.356L-58.0102 266.997C-57.7946 266.625 -57.5553 266.265 -57.2928 265.919ZM-48.9878 274.116L-44.7948 268.334L-37.1972 274.627L-41.1455 280.304L-48.9878 274.116ZM-40.1837 281.063L-36.252 275.41L-28.8907 281.507L-32.5952 287.052L-40.1837 281.063ZM-31.6334 287.81L-27.9451 282.29L-20.8057 288.204L-24.2825 293.611L-31.6334 287.81ZM-23.3176 294.372L-19.8565 288.99L-12.9196 294.735L-16.1835 300.002L-23.3176 294.372ZM-15.2161 300.765L-11.9678 295.524L-5.22236 301.111L-8.28659 306.233L-15.2161 300.765ZM-7.31342 307.001L-4.2645 301.904L2.30665 307.347L-0.569916 312.322L-7.31342 307.001ZM0.401983 313.089L3.26372 308.139L9.67247 313.447L6.97234 318.274L0.401983 313.089ZM7.94483 319.041L10.6304 314.241L16.8882 319.424L14.3544 324.099L7.94483 319.041ZM15.3284 324.868L17.848 320.219L23.9616 325.283L21.5848 329.805L15.3284 324.868ZM22.5646 330.578L24.9274 326.083L187.296 460.566L22.5646 330.578ZM209.241 477.883L192.646 464.788C197.227 467.414 203.198 466.453 206.687 462.262L419.037 207.26C420.903 205.02 421.796 202.191 421.558 199.288C421.31 196.305 419.907 193.61 417.596 191.699L193.241 5.87348L194.161 4.12327L434.591 193.841C436.793 195.581 438.189 198.174 438.418 200.969L438.424 200.968C438.636 203.543 437.869 206.078 436.26 208.105L223.548 476.209C220.063 480.607 213.644 481.357 209.241 477.883ZM193.179 3.34857L192.273 5.07197L189.771 2.99969L190.66 1.36053L193.179 3.34857ZM189.686 0.59195L188.811 2.20477L186.34 0.157441L187.196 -1.37276L189.686 0.59195ZM186.223 -2.14013L185.382 -0.635965L182.944 -2.65531L183.766 -4.07862L186.223 -2.14013ZM182.791 -4.84837L181.983 -3.45091L179.578 -5.44283L180.367 -6.76128L182.791 -4.84837ZM179.398 -7.52554L178.625 -6.2325L176.256 -8.19441L176.825 -9.11328C176.887 -9.21246 176.95 -9.31045 177.013 -9.40727L179.398 -7.52554ZM175.781 -9.75351L175.304 -8.98324L172.996 -10.8942C173.256 -11.2536 173.534 -11.5961 173.828 -11.9208L176.049 -10.1686C175.957 -10.0324 175.868 -9.89404 175.781 -9.75351ZM172.861 -12.6836C172.575 -12.3643 172.304 -12.0296 172.047 -11.6802L169.936 -13.4287C170.234 -13.7209 170.547 -13.9957 170.873 -14.2524L172.861 -12.6836ZM169.89 -15.0286C169.578 -14.7716 169.278 -14.4993 168.99 -14.2122L167.153 -15.7339C167.492 -15.961 167.843 -16.1692 168.205 -16.3577L169.89 -15.0286ZM167.164 -17.1794C166.825 -16.9832 166.495 -16.7709 166.176 -16.5432L164.718 -17.7506C165.111 -17.9081 165.515 -18.0432 165.927 -18.155L167.164 -17.1794ZM164.642 -19.0309C164.308 -18.9102 163.981 -18.7751 163.661 -18.6263L162.776 -19.3593C163.127 -19.4064 163.481 -19.436 163.836 -19.4478C164.109 -19.3218 164.378 -19.1828 164.642 -19.0309ZM-58.5735 268.118C-59.2427 269.677 -59.5268 271.386 -59.3854 273.101C-59.1381 276.079 -57.6324 278.81 -55.2438 280.608L-55.1625 280.669C-54.9428 280.282 -54.7009 279.906 -54.4374 279.542L-50.6732 274.352L-58.5735 268.118ZM-49.7099 275.112L-53.443 280.26C-53.7122 280.63 -53.9563 281.016 -54.1745 281.414L-46.1318 287.474L-41.8484 281.315L-49.7099 275.112ZM-40.8866 282.074L-45.1544 288.211L-37.3162 294.117L-33.2798 288.076L-40.8866 282.074ZM-32.3181 288.835L-36.3394 294.854L-28.756 300.568L-24.95 294.649L-32.3181 288.835ZM-23.985 295.41L-27.7763 301.306L-20.425 306.846L-16.8346 301.052L-23.985 295.41ZM-15.8672 301.816L-19.4431 307.586L-12.3107 312.961L-8.92219 307.296L-15.8672 301.816ZM-7.94899 308.064L-11.3232 313.705L-4.38962 318.93L-1.19076 313.396L-7.94899 308.064ZM-0.218868 314.163L-3.4039 319.672L3.34492 324.758L6.36552 319.359L-0.218868 314.163ZM7.33802 320.126L4.33101 325.501L10.9084 330.458L13.761 325.194L7.33802 320.126ZM14.735 325.963L11.8957 331.202L18.3099 336.035L21.0041 330.909L14.735 325.963ZM21.9839 331.683L19.3028 336.783L226.609 493.001C231.236 496.485 237.846 495.564 241.342 490.952L454.416 209.742C455.977 207.682 456.72 205.128 456.507 202.554L456.503 202.56C456.256 199.587 454.75 196.851 452.366 195.052L195.533 1.51296L194.737 3.02676L435.352 192.89C437.819 194.836 439.381 197.745 439.641 200.874C439.883 203.76 439.019 206.602 437.217 208.871L224.505 476.974C220.601 481.894 213.41 482.731 208.481 478.839L21.9839 331.683ZM193.755 2.25204L194.538 0.763217L192.014 -1.13867L191.248 0.273909L193.755 2.25204ZM190.274 -0.494666L191.027 -1.88268L188.532 -3.76228L187.798 -2.44899L190.274 -0.494666ZM186.825 -3.21635L187.546 -4.50534L185.085 -6.35986L184.382 -5.14395L186.825 -3.21635ZM183.407 -5.91371L184.096 -7.1055L181.715 -8.89937C181.473 -8.57041 181.244 -8.22803 181.032 -7.87294L180.997 -7.81516L183.407 -5.91371ZM180.029 -8.57921C180.25 -8.94412 180.487 -9.29659 180.738 -9.63597L178.543 -11.2901C178.26 -11.0058 177.99 -10.7057 177.734 -10.3901L180.029 -8.57921ZM176.772 -11.1489C177.022 -11.4572 177.284 -11.752 177.557 -12.0332L175.593 -13.5131C175.283 -13.2859 174.984 -13.0433 174.697 -12.7861L176.772 -11.1489ZM173.721 -13.557C173.995 -13.8108 174.28 -14.0523 174.574 -14.2809L172.912 -15.533C172.57 -15.3656 172.238 -15.1816 171.915 -14.9816L173.721 -13.557ZM170.902 -15.7812C171.203 -15.9829 171.514 -16.1716 171.832 -16.3468L170.603 -17.2733C170.215 -17.174 169.834 -17.0548 169.463 -16.9165L170.902 -15.7812ZM168.36 -17.7867C168.658 -17.9181 168.962 -18.0381 169.272 -18.1462C169.016 -18.2877 168.756 -18.4175 168.492 -18.5357C168.164 -18.5259 167.834 -18.5013 167.505 -18.4616L168.36 -17.7867ZM-55.4692 287.494C-55.6093 285.796 -55.3442 284.101 -54.7116 282.543L-46.832 288.481L-50.6018 293.902C-50.8759 294.296 -51.1258 294.705 -51.3508 295.126C-53.7249 293.267 -55.2167 290.509 -55.4692 287.494ZM-49.5987 294.602L-45.8545 289.218L-37.998 295.138L-42.339 301.635L-50.3531 295.855C-50.1303 295.423 -49.8785 295.004 -49.5987 294.602ZM-41.348 302.35L-37.0212 295.874L-29.4204 301.601L-33.5278 307.989L-41.348 302.35ZM-32.5343 308.706L-28.4407 302.34L-21.073 307.892L-24.962 314.167L-32.5343 308.706ZM-23.9665 314.885L-20.0911 308.631L-12.9431 314.018L-16.6277 320.177L-23.9665 314.885ZM-15.6267 320.899L-11.9556 314.762L-5.00717 319.998L-8.4997 326.039L-15.6267 320.899ZM-7.50104 326.759L-4.02148 320.741L2.74144 325.837L-0.570683 331.757L-7.50104 326.759ZM0.428126 332.478L3.72753 326.58L10.3183 331.546L7.17612 337.344L0.428126 332.478ZM8.17589 338.065L11.3057 332.29L17.7326 337.133L14.7506 342.807L8.17589 338.065ZM15.7557 343.531L18.7255 337.881L225.879 493.981C231.043 497.875 238.422 496.846 242.323 491.693L455.397 210.483C457.14 208.182 457.97 205.329 457.731 202.459C457.456 199.136 455.768 196.085 453.108 194.077L196.109 0.416938L196.791 -0.879921L470.146 196.257C472.717 198.113 474.338 200.988 474.603 204.143C474.815 206.718 474.096 209.285 472.577 211.377L259.142 505.694C255.636 510.531 248.831 511.623 243.984 508.124L15.7557 343.531ZM195.783 -1.6063L195.114 -0.332801L192.603 -2.22508L193.255 -3.42936L195.783 -1.6063ZM192.256 -4.15037L191.615 -2.96908L189.135 -4.83859L189.444 -5.39223C189.549 -5.57931 189.658 -5.7629 189.77 -5.94296L192.256 -4.15037ZM188.378 -5.99157L188.148 -5.58164L185.727 -7.40657C185.947 -7.73394 186.182 -8.04957 186.428 -8.35285L188.775 -6.66024C188.638 -6.44214 188.505 -6.21922 188.378 -5.99157ZM185.431 -9.07236C185.19 -8.77454 184.961 -8.46596 184.744 -8.14708L182.488 -9.84722C182.735 -10.1222 182.993 -10.3853 183.262 -10.6362L185.431 -9.07236ZM182.252 -11.3648C181.994 -11.1157 181.746 -10.8561 181.507 -10.5864L179.463 -12.1266C179.738 -12.3519 180.022 -12.5642 180.313 -12.7633L182.252 -11.3648ZM179.264 -13.5195C178.989 -13.3183 178.721 -13.1059 178.46 -12.8825L176.681 -14.2225C176.985 -14.3975 177.298 -14.5591 177.618 -14.7069L179.264 -13.5195ZM176.493 -15.5178C176.198 -15.3621 175.908 -15.1954 175.626 -15.0179L174.221 -16.0768C174.569 -16.1969 174.924 -16.3012 175.285 -16.389L176.493 -15.5178ZM173.913 -17.2602C173.628 -17.1642 173.347 -17.0585 173.071 -16.9434L172.242 -17.5681C172.548 -17.6005 172.854 -17.6203 173.159 -17.6278C173.414 -17.5154 173.666 -17.3928 173.913 -17.2602ZM-50.8622 296.995C-51.4528 298.544 -51.6964 300.217 -51.5592 301.882C-51.308 304.909 -49.8557 307.665 -47.5373 309.575C-47.308 309.126 -47.0508 308.688 -46.7661 308.261L-43.0184 302.652L-50.8622 296.995ZM-42.0274 303.367L-45.7497 308.937C-46.0465 309.383 -46.3102 309.842 -46.54 310.314L-38.5676 315.827L-34.1897 309.019L-42.0274 303.367ZM-33.1963 309.735L-37.5611 316.523L-29.7641 321.916L-25.6074 315.208L-33.1963 309.735ZM-24.6119 315.926L-28.7559 322.613L-21.2074 327.833L-17.2574 321.23L-24.6119 315.926ZM-16.2564 321.952L-20.1938 328.534L-12.8703 333.599L-9.11451 327.103L-16.2564 321.952ZM-8.11586 327.823L-11.8595 334.298L-4.74484 339.219L-1.17134 332.831L-8.11586 327.823ZM-0.17252 333.551L-3.7341 339.918L3.18711 344.704L6.58893 338.427L-0.17252 333.551ZM7.58871 339.148L4.19856 345.404L10.9362 350.063L14.1762 343.899L7.58871 339.148ZM15.1813 344.624L11.9527 350.766L261.353 523.247C263.81 524.944 266.782 525.59 269.73 525.058C272.672 524.527 275.233 522.885 276.941 520.431L490.737 213.013C492.215 210.888 492.915 208.301 492.698 205.733L492.703 205.727C492.425 202.382 490.683 199.371 487.926 197.462L197.947 -3.07802C197.918 -3.02476 197.89 -2.97125 197.862 -2.91753L197.365 -1.97259L470.864 195.268C473.728 197.332 475.532 200.526 475.825 204.043C476.063 206.902 475.262 209.763 473.571 212.095L260.136 506.406C256.231 511.789 248.663 513.005 243.266 509.113L15.1813 344.624ZM196.358 -2.69898L196.772 -3.4867C196.824 -3.58558 196.877 -3.68375 196.93 -3.7812L194.468 -5.48418C194.249 -5.16958 194.042 -4.84447 193.847 -4.50937L196.358 -2.69898ZM192.851 -5.22778C193.044 -5.55405 193.248 -5.87147 193.462 -6.17962L191.149 -7.77923C190.911 -7.51359 190.683 -7.23688 190.464 -6.94932L192.851 -5.22778ZM189.471 -7.66569C189.683 -7.94697 189.905 -8.21877 190.135 -8.48094L187.991 -9.9632C187.735 -9.74166 187.487 -9.50979 187.249 -9.268L189.471 -7.66569ZM186.243 -9.9938C186.471 -10.2318 186.708 -10.4612 186.952 -10.6819L185.031 -12.0104C184.755 -11.8335 184.487 -11.6458 184.226 -11.4479L186.243 -9.9938ZM183.193 -12.1933C183.438 -12.3904 183.691 -12.5789 183.949 -12.7586L182.33 -13.8784C182.031 -13.7481 181.737 -13.6057 181.448 -13.4514L183.193 -12.1933ZM180.356 -14.239C180.622 -14.3962 180.893 -14.544 181.168 -14.6822L179.973 -15.5087C179.634 -15.4313 179.301 -15.3399 178.975 -15.2352L180.356 -14.239ZM177.77 -16.1042C178.025 -16.2053 178.284 -16.2987 178.547 -16.3842C178.314 -16.5049 178.078 -16.6169 177.839 -16.7204C177.554 -16.7151 177.268 -16.6992 176.981 -16.6726L177.77 -16.1042ZM-47.6492 316.27C-47.7871 314.611 -47.5719 312.984 -47.0231 311.458L-39.2254 316.851L-42.9357 322.621C-43.227 323.076 -43.4885 323.543 -43.7197 324.021C-45.9859 322.062 -47.3993 319.308 -47.6492 316.27ZM-41.9052 323.279L-38.2191 317.547L-30.4055 322.951L-34.8077 330.054L-42.5471 324.912C-42.6085 324.871 -42.6695 324.83 -42.7299 324.788C-42.4934 324.271 -42.2183 323.767 -41.9052 323.279ZM-33.7874 330.732L-29.3972 323.648L-21.833 328.879L-26.026 335.889L-33.7874 330.732ZM-25.0004 336.57L-20.8194 329.58L-13.4811 334.656L-17.4775 341.569L-25.0004 336.57ZM-16.4554 342.248L-12.4703 335.355L-5.34148 340.285L-9.15353 347.099L-16.4554 342.248ZM-8.13159 347.778L-4.33074 340.984L2.60393 345.78L-1.03455 352.494L-8.13159 347.778ZM-0.0121565 353.173L3.61536 346.48L10.3658 351.148L6.89087 357.76L-0.0121565 353.173ZM7.91811 358.442L11.3823 351.852L260.653 524.25C263.379 526.136 266.681 526.849 269.947 526.26C273.219 525.665 276.057 523.841 277.949 521.125L491.745 213.707C493.383 211.349 494.157 208.481 493.92 205.627C493.612 201.916 491.681 198.575 488.621 196.46L198.578 -4.13282C198.77 -4.424 198.971 -4.70692 199.182 -4.9812L505.701 198.673C508.649 200.634 510.513 203.783 510.803 207.316L510.798 207.322C511.02 209.928 510.357 212.466 508.898 214.648L294.741 535.174C293.024 537.732 290.421 539.477 287.396 540.078C284.37 540.68 281.289 540.075 278.722 538.371L7.91811 358.442ZM198.156 -5.66298C197.951 -5.39356 197.754 -5.11654 197.567 -4.83224L195.214 -6.4592C195.424 -6.7089 195.642 -6.95047 195.868 -7.18357L198.156 -5.66298ZM194.834 -7.87052C194.617 -7.64002 194.407 -7.40221 194.205 -7.15734L192.023 -8.66618C192.251 -8.87665 192.485 -9.07836 192.726 -9.27114L194.834 -7.87052ZM191.659 -9.9797C191.432 -9.78691 191.209 -9.58653 190.993 -9.3787L189.004 -10.7539C189.249 -10.9258 189.5 -11.0893 189.756 -11.2441L191.659 -9.9797ZM188.638 -11.9871C188.399 -11.8294 188.165 -11.6646 187.936 -11.4929L186.216 -12.6825C186.483 -12.8154 186.755 -12.9392 187.033 -13.0534L188.638 -11.9871ZM185.829 -13.8535C185.576 -13.7318 185.327 -13.6027 185.082 -13.4662L183.741 -14.394C184.044 -14.4844 184.351 -14.5631 184.66 -14.63L185.829 -13.8535ZM183.193 -15.5024C182.956 -15.4281 182.721 -15.3472 182.489 -15.2599L181.738 -15.779C181.999 -15.7993 182.259 -15.8111 182.519 -15.8143C182.746 -15.7179 182.971 -15.6139 183.193 -15.5024ZM-43.1893 325.951C-43.6916 327.452 -43.8845 329.04 -43.7504 330.653C-43.4973 333.702 -42.1192 336.462 -39.9002 338.463C-39.6663 337.957 -39.3994 337.462 -39.1 336.98L-35.4512 331.092L-43.1893 325.951ZM-34.431 331.77L-38.0602 337.626C-38.3875 338.155 -38.6722 338.701 -38.9132 339.263C-38.7179 339.404 -38.5175 339.541 -38.3122 339.672L-31.0619 344.308L-26.6535 336.938L-34.431 331.77ZM-25.628 337.619L-30.0251 344.97L-22.2997 349.91L-18.0899 342.628L-25.628 337.619ZM-17.0678 343.307L-21.2669 350.57L-13.7751 355.36L-9.75157 348.168L-17.0678 343.307ZM-8.72962 348.847L-12.7426 356.02L-5.46706 360.672L-1.6189 353.572L-8.72962 348.847ZM-0.596506 354.251L-4.43435 361.333L2.6365 365.853L6.31954 358.846L-0.596506 354.251ZM7.34677 359.529L3.67382 366.517L296.101 553.488C301.627 557.02 308.998 555.41 312.544 549.899L527.064 216.272C528.486 214.062 529.126 211.51 528.908 208.893L528.909 208.898C528.6 205.177 526.621 201.891 523.476 199.879L200.601 -6.55936C200.383 -6.35184 200.173 -6.13712 199.969 -5.91544L506.367 197.658C509.635 199.829 511.688 203.312 512.015 207.216C512.251 210.103 511.529 212.905 509.915 215.325L295.751 535.845C293.863 538.681 290.973 540.609 287.63 541.279C284.285 541.942 280.876 541.276 278.04 539.388L7.34677 359.529ZM198.933 -6.60338C199.129 -6.82138 199.33 -7.03336 199.537 -7.23914L197.446 -8.5765C197.216 -8.40392 196.993 -8.22414 196.775 -8.03738L198.933 -6.60338ZM195.721 -8.73771C195.927 -8.92264 196.138 -9.10169 196.354 -9.27468L194.489 -10.4669C194.247 -10.3294 194.008 -10.1841 193.774 -10.0312L195.721 -8.73771ZM192.672 -10.7635C192.889 -10.9168 193.111 -11.0639 193.335 -11.2047L191.745 -12.2216C191.483 -12.1197 191.226 -12.0098 190.973 -11.8921L192.672 -10.7635ZM189.797 -12.6737C190.026 -12.7952 190.26 -12.9106 190.496 -13.0198L189.342 -13.758C189.154 -13.7193 188.967 -13.6763 188.78 -13.6289C188.679 -13.6035 188.579 -13.577 188.479 -13.5493L189.797 -12.6737ZM187.175 -14.4155C187.389 -14.4919 187.606 -14.5633 187.825 -14.6295C187.62 -14.7291 187.412 -14.8225 187.203 -14.9097C186.958 -14.9082 186.714 -14.8995 186.471 -14.8836L187.175 -14.4155ZM-39.8503 345.048C-39.9809 343.479 -39.81 341.929 -39.3537 340.457C-39.2293 340.543 -39.1031 340.627 -38.9752 340.708L-31.6938 345.364L-35.265 351.334C-35.5704 351.846 -35.8408 352.373 -36.0756 352.911C-38.2316 350.861 -39.6 348.059 -39.8503 345.048ZM-34.2105 351.968L-30.6569 346.027L-22.916 350.976L-27.3291 358.609L-34.0806 354.449C-34.4322 354.232 -34.7708 353.999 -35.0956 353.749C-34.8498 353.138 -34.5544 352.543 -34.2105 351.968ZM-26.2861 359.252L-21.8832 351.636L-14.3766 356.436L-18.6014 363.988L-26.2861 359.252ZM-17.559 364.63L-13.3442 357.096L-6.05467 361.756L-10.1023 369.225L-17.559 364.63ZM-9.05989 369.867L-5.02194 362.417L2.0622 366.946L-1.81868 374.329L-9.05989 369.867ZM-0.771887 374.974L3.09951 367.609L295.438 554.519C301.531 558.409 309.666 556.637 313.574 550.558L528.094 216.931C529.667 214.489 530.372 211.679 530.131 208.792C529.789 204.689 527.604 201.064 524.133 198.843L201.562 -7.39641C201.764 -7.55667 201.97 -7.71136 202.181 -7.86032L541.244 201.08C544.539 203.111 546.693 206.625 547.014 210.481C547.232 213.098 546.611 215.669 545.224 217.908L330.338 564.642C328.622 567.418 325.914 569.361 322.728 570.114C319.547 570.866 316.258 570.336 313.471 568.617L-0.771887 374.974ZM201.053 -8.55574C200.856 -8.40619 200.662 -8.25185 200.472 -8.09284L198.547 -9.32375C198.761 -9.454 198.979 -9.57853 199.201 -9.6972L201.053 -8.55574ZM198.015 -10.428C197.811 -10.3063 197.61 -10.1799 197.413 -10.0488L195.764 -11.1032C195.995 -11.2034 196.228 -11.297 196.463 -11.384L198.015 -10.428ZM195.171 -12.1803C194.96 -12.0865 194.75 -11.9876 194.543 -11.8838L193.255 -12.7076C193.513 -12.7739 193.772 -12.8322 194.031 -12.8826L195.171 -12.1803ZM192.462 -13.7561C192.271 -13.7001 192.082 -13.6404 191.895 -13.577L191.229 -14.0025C191.438 -14.0137 191.647 -14.0196 191.856 -14.0204C192.059 -13.9381 192.261 -13.8501 192.462 -13.7561ZM-35.5121 354.961C-35.9269 356.406 -36.0774 357.918 -35.9503 359.443C-35.7012 362.462 -34.3636 365.264 -32.249 367.357C-32.0121 366.789 -31.7369 366.233 -31.424 365.693L-27.9403 359.667L-34.7215 355.488C-34.9921 355.321 -35.2558 355.146 -35.5121 354.961ZM-26.8974 360.309L-30.3662 366.309C-30.7231 366.928 -31.0267 367.569 -31.2755 368.226C-30.8232 368.589 -30.3434 368.923 -29.8384 369.225L-23.6052 372.932L-19.1979 365.054L-26.8974 360.309ZM-18.1555 365.696L-22.5534 373.557L-14.9131 378.101L-10.6848 370.3L-18.1555 365.696ZM-9.64237 370.942L-13.8615 378.727L-6.44777 383.136L-2.38784 375.412L-9.64237 370.942ZM-1.34104 376.057L-5.39204 383.764L330.852 583.744C333.747 585.461 337.141 585.955 340.405 585.133C343.674 584.31 346.424 582.263 348.153 579.377L563.396 219.542C564.752 217.275 565.354 214.69 565.136 212.067L565.13 212.062C564.795 208.012 562.509 204.357 559.018 202.28L203.928 -8.91187C203.725 -8.80876 203.524 -8.70093 203.327 -8.58851L541.89 200.04C545.515 202.269 547.883 206.137 548.236 210.375C548.476 213.256 547.795 216.08 546.268 218.543L331.381 565.272C329.489 568.331 326.511 570.467 323.008 571.292C319.499 572.118 315.883 571.538 312.824 569.646L-1.34104 376.057ZM202.15 -9.31374C202.331 -9.4271 202.514 -9.53677 202.7 -9.64269L201.161 -10.5581C200.945 -10.4827 200.732 -10.4023 200.522 -10.317L202.15 -9.31374ZM199.261 -11.0943C199.448 -11.1834 199.637 -11.2687 199.829 -11.3502L198.73 -12.0038C198.493 -11.9608 198.258 -11.9115 198.024 -11.856L199.261 -11.0943ZM196.607 -12.7294C196.773 -12.7832 196.941 -12.834 197.109 -12.8819C196.924 -12.9662 196.738 -13.0458 196.551 -13.1209C196.364 -13.1216 196.176 -13.1181 195.989 -13.1106L196.607 -12.7294ZM-32.0617 373.833C-32.1853 372.352 -32.0518 370.88 -31.6745 369.466C-31.2905 369.753 -30.8897 370.021 -30.4733 370.268L-24.2019 373.998L-27.5884 380.052C-27.9079 380.621 -28.1871 381.208 -28.4251 381.807C-30.5024 379.677 -31.8091 376.868 -32.0617 373.833ZM-26.5218 380.651L-23.15 374.624L-15.4958 379.176L-19.8874 387.279L-25.6082 383.991C-26.2662 383.613 -26.8834 383.182 -27.4554 382.704C-27.2046 382 -26.8929 381.313 -26.5218 380.651ZM-18.8271 387.889L-14.4442 379.802L-7.01708 384.219L-11.2386 392.251L-18.8271 387.889ZM-10.1745 392.862L-5.96136 384.847L330.218 584.793C333.391 586.682 337.111 587.222 340.696 586.315C344.283 585.414 347.301 583.17 349.196 580.001L564.438 220.166C565.924 217.676 566.587 214.838 566.347 211.962C565.98 207.525 563.474 203.516 559.642 201.238L205.292 -9.51479C205.481 -9.58711 205.673 -9.6556 205.867 -9.72019L576.798 203.485C580.485 205.608 582.898 209.405 583.251 213.643L583.246 213.649C583.46 216.278 582.876 218.877 581.551 221.173L365.947 594.115C362.372 600.299 354.42 602.429 348.221 598.868L-10.1745 392.862ZM204.487 -10.5133C204.316 -10.4434 204.147 -10.3706 203.98 -10.2949L202.769 -11.0154C202.978 -11.0616 203.188 -11.1029 203.398 -11.1393L204.487 -10.5133ZM201.447 -11.9328C201.398 -11.9183 201.349 -11.9035 201.301 -11.8885L200.751 -12.2151C200.913 -12.2197 201.074 -12.2214 201.236 -12.2201C201.401 -12.1549 201.566 -12.0862 201.729 -12.0139C201.635 -11.9878 201.541 -11.9608 201.447 -11.9328ZM-27.8341 383.962C-28.177 385.347 -28.2934 386.783 -28.1731 388.224C-27.9209 391.274 -26.6395 394.089 -24.5964 396.254C-24.3585 395.625 -24.0769 395.009 -23.7526 394.411L-20.4675 388.35L-26.2203 385.043C-26.7866 384.717 -27.3253 384.356 -27.8341 383.962ZM-19.4072 388.959L-22.6774 394.993C-23.0597 395.699 -23.3771 396.431 -23.6281 397.181C-22.9403 397.776 -22.186 398.305 -21.3727 398.757L-16.1773 401.646L-11.8054 393.329L-19.4072 388.959ZM-10.7413 393.941L-15.1051 402.243L365.59 613.991C368.705 615.724 372.306 616.137 375.737 615.169C379.167 614.2 382.011 611.951 383.75 608.846L599.717 222.802C601.011 220.483 601.583 217.869 601.368 215.23C601.001 210.797 598.46 206.853 594.572 204.691L208.088 -10.2688C207.903 -10.2386 207.718 -10.2046 207.534 -10.167L577.404 202.434C581.443 204.757 584.082 208.912 584.464 213.549C584.698 216.425 584.063 219.271 582.608 221.784L367.004 594.726C363.09 601.492 354.386 603.832 347.605 599.931L-10.7413 393.941ZM206.006 -11.0453L205.497 -11.3379C205.628 -11.3401 205.76 -11.3405 205.892 -11.3389C206.05 -11.278 206.208 -11.2138 206.366 -11.1464C206.245 -11.1142 206.125 -11.0805 206.006 -11.0453ZM-24.285 402.609C-24.3988 401.214 -24.2979 399.82 -23.9898 398.47C-23.3618 398.972 -22.6878 399.425 -21.9721 399.823L-16.7466 402.729L-19.9222 408.771C-20.2501 409.396 -20.5329 410.038 -20.7699 410.695C-22.7771 408.498 -24.0329 405.674 -24.285 402.609ZM-18.833 409.335L-15.6744 403.326L365.006 615.05C368.402 616.938 372.335 617.396 376.08 616.333C379.826 615.276 382.933 612.824 384.832 609.432L600.798 223.389C602.213 220.859 602.835 217.999 602.595 215.123C602.193 210.282 599.421 205.98 595.171 203.619L210.282 -10.4529C210.377 -10.4534 210.471 -10.4529 210.565 -10.4515C211.134 -10.2359 211.691 -9.98132 212.235 -9.68823L612.341 205.892C616.436 208.099 619.108 212.179 619.489 216.811L619.49 216.816C619.71 219.455 619.152 222.089 617.882 224.432L401.555 623.582C397.961 630.215 389.623 632.693 382.97 629.113L-17.137 413.522C-18.1088 413 -19.0006 412.371 -19.8006 411.655C-19.5497 410.859 -19.2265 410.083 -18.833 409.335ZM-20.1463 412.972C-19.4007 413.587 -18.589 414.134 -17.7183 414.603L382.394 630.193C389.638 634.096 398.726 631.391 402.641 624.163L618.968 225.013C620.353 222.459 620.952 219.586 620.717 216.709C620.295 211.669 617.385 207.222 612.929 204.821L214.675 -9.76553C215.425 -9.52138 216.159 -9.2126 216.87 -8.83978L630.11 207.104C634.406 209.345 637.211 213.571 637.611 218.397L637.617 218.396C637.838 221.04 637.299 223.693 636.053 226.061L419.364 638.313C417.614 641.637 414.676 644.083 411.085 645.203C407.488 646.323 403.679 645.979 400.345 644.236L-12.9001 428.299C-17.1907 426.051 -19.9956 421.831 -20.3964 417C-20.5099 415.645 -20.424 414.29 -20.1463 412.972Z" fill="black" fill-opacity="0.2"/>
</svg>
