<svg
  width="54"
  height="54"
  viewBox="0 0 54 54"
  fill="none"
  xmlns="http://www.w3.org/2000/svg"
>
  <path
    d="M12.3321 43L12.332 42.7613C12.3318 40.453 12.3315 38.3365 12.563 36.6148C12.8179 34.719 13.4176 32.7151 15.0657 31.067C16.7139 29.4188 18.7177 28.8191 20.6136 28.5642C22.3353 28.3327 24.4517 28.333 26.7601 28.3333H27.2374C29.5457 28.333 31.6622 28.3327 33.3838 28.5642C35.2797 28.8191 37.2836 29.4188 38.9317 31.067C40.5799 32.7151 41.1796 34.719 41.4345 36.6148C41.6625 38.3111 41.6656 40.3905 41.6654 42.6592C48.5257 41.1921 53.6654 35.1597 53.6654 27.9411C53.6654 21.3496 49.3799 15.7472 43.4122 13.7065C42.5643 6.18314 36.1077 0.333252 28.2685 0.333252C19.8528 0.333252 13.0304 7.07532 13.0304 15.3921C13.0304 17.2316 13.3642 18.994 13.9751 20.6236C13.2587 20.4845 12.5183 20.4117 11.7606 20.4117C5.44878 20.4117 0.332031 25.4682 0.332031 31.7058C0.332031 37.9434 5.44878 42.9999 11.7606 42.9999L12.3321 43Z"
    fill="#8E9BAE"
  />
  <path
    fill-rule="evenodd"
    clip-rule="evenodd"
    d="M26.9987 32.3333C21.9704 32.3333 19.4562 32.3333 17.8941 33.8953C16.332 35.4574 16.332 37.9716 16.332 42.9999C16.332 48.0282 16.332 50.5424 17.8941 52.1045C19.4562 53.6666 21.9704 53.6666 26.9987 53.6666C32.027 53.6666 34.5412 53.6666 36.1033 52.1045C37.6654 50.5424 37.6654 48.0282 37.6654 42.9999C37.6654 37.9716 37.6654 35.4574 36.1033 33.8953C34.5412 32.3333 32.027 32.3333 26.9987 32.3333ZM31.8113 40.5577L28.2558 37.0021C27.5615 36.3078 26.4359 36.3078 25.7416 37.0021L22.1861 40.5577C21.4918 41.2519 21.4918 42.3775 22.1861 43.0718C22.8803 43.7661 24.006 43.7661 24.7002 43.0718L25.2209 42.5511V47.7407C25.2209 48.7225 26.0169 49.5184 26.9987 49.5184C27.9805 49.5184 28.7765 48.7225 28.7765 47.7407V42.5511L29.2972 43.0718C29.9914 43.7661 31.1171 43.7661 31.8113 43.0718C32.5056 42.3775 32.5056 41.2519 31.8113 40.5577Z"
    fill="#8E9BAE"
  />
</svg>
